<svg xmlns="http://www.w3.org/2000/svg" width="445" height="132" fill="none" viewBox="0 0 445 132">
  <g clip-path="url(#a)">
    <path fill="#090A0B"
      d="M226.236 28.5c-2.016-1.833-2.932-4.033-2.932-6.783s.916-4.95 2.932-6.783c2.015-1.834 4.58-2.75 7.695-2.75s5.68.916 7.695 2.566c2.016 1.834 2.932 4.034 2.932 6.6 0 2.934-.916 5.317-2.932 7.15-2.015 1.834-4.58 2.75-7.695 2.75s-5.68-.916-7.695-2.75Zm-.733 9.167h17.223v59.4h-17.223v-59.4ZM327.556 16.95h17.223v80.117h-17.223V16.95Zm40.858 77.184c-4.947-2.567-8.794-6.234-11.726-10.817-2.748-4.583-4.214-9.9-4.214-15.767 0-5.866 1.466-11.183 4.214-15.766 2.748-4.584 6.596-8.25 11.726-10.817 4.947-2.567 10.627-3.85 16.856-3.85 6.23 0 11.91 1.283 16.857 3.85 4.946 2.567 8.794 6.233 11.542 10.817 2.749 4.583 4.214 9.9 4.214 15.766 0 5.867-1.465 11.184-4.214 15.767-2.748 4.583-6.596 8.25-11.542 10.817-4.947 2.566-10.444 3.85-16.857 3.85-6.229 0-11.726-1.284-16.856-3.85Zm27.85-14.667c2.748-2.933 4.214-6.967 4.214-11.917s-1.466-8.983-4.214-11.916c-2.749-2.934-6.413-4.4-10.81-4.4-4.398 0-8.062 1.466-10.994 4.4-2.931 2.933-4.397 6.966-4.397 11.916s1.466 8.984 4.397 11.917c2.932 2.933 6.596 4.4 10.994 4.4 4.214 0 7.878-1.467 10.81-4.4ZM426.678 28.5c-2.015-1.833-2.932-4.033-2.932-6.783s.917-4.95 2.932-6.783c2.015-1.834 4.58-2.75 7.695-2.75s5.68.916 7.695 2.566c2.016 1.834 2.932 4.034 2.932 6.6 0 2.934-.916 5.317-2.932 7.15-2.015 1.834-4.58 2.75-7.695 2.75-3.298 0-5.863-.916-7.695-2.75Zm-.916 9.167h17.223v59.4h-17.223v-59.4ZM197.654 16.95v50.417c0 4.95-1.466 8.983-4.398 11.917-2.931 2.933-6.412 4.4-10.81 4.4-4.397 0-8.061-1.467-10.993-4.4-2.931-2.934-4.397-6.967-4.397-11.917s1.466-8.983 4.397-11.917c2.932-2.933 6.596-4.4 10.993-4.4 3.482 0 6.413.917 8.978 2.934V39.5c-3.298-1.833-7.329-2.75-11.909-2.75-5.68 0-10.627 1.284-15.207 3.667-4.581 2.567-8.062 6.05-10.627 10.633-2.565 4.584-3.848 10.084-3.848 16.134 0 6.05 1.283 11.55 3.848 16.133 2.565 4.583 6.046 8.25 10.627 10.633 4.58 2.567 9.527 3.667 15.207 3.667 8.061 0 14.291-2.567 18.505-7.7V96.7h16.49V16.95h-16.856Zm118.359 34.284c-2.565-4.584-6.046-8.25-10.626-10.634-4.581-2.566-9.528-3.85-15.024-3.85-8.245 0-14.475 2.567-18.689 7.7v-6.783h-16.49v80.85h17.04V67.184c0-4.95 1.466-8.984 4.214-11.917s6.413-4.4 10.81-4.4 8.062 1.467 10.81 4.4c2.748 2.933 4.214 6.967 4.214 11.917s-1.466 8.983-4.214 11.916c-2.748 2.934-6.413 4.4-10.81 4.4-3.481 0-6.23-.916-8.795-2.75v14.3c3.298 1.65 7.329 2.567 11.726 2.567 5.497 0 10.627-1.283 15.024-3.85 4.581-2.567 8.062-6.05 10.627-10.633 2.565-4.584 3.848-9.9 3.848-16.134.183-5.866-1.1-11.183-3.665-15.766Z" />
    <path fill="url(#b)" fill-rule="evenodd"
      d="M12.596 0h77.949l37.788 66h-27.565L75.576 22.061H25.192L12.596 0Z" clip-rule="evenodd" />
    <path fill="url(#c)" fill-rule="evenodd"
      d="M88.172 132H12.597l12.595-22.061h50.384L100.768 66h27.565l-37.788 66h-2.373Z"
      clip-rule="evenodd" />
    <path fill="url(#d)" fill-rule="evenodd" d="M25.192 22.06 0 66h50.384l25.192-43.94H25.192Z"
      clip-rule="evenodd" />
    <path fill="url(#e)" fill-rule="evenodd" d="M25.192 109.939 0 66h50.384l25.192 43.939H25.192Z"
      clip-rule="evenodd" />
  </g>
  <defs>
    <linearGradient id="b" x1="70.465" x2="70.465" y1="0" y2="66" gradientUnits="userSpaceOnUse">
      <stop stop-color="#842EFF" />
      <stop offset=".995" stop-color="#3D04BD" />
    </linearGradient>
    <linearGradient id="c" x1="70.465" x2="70.465" y1="66" y2="132" gradientUnits="userSpaceOnUse">
      <stop stop-color="#BA89FF" />
      <stop offset="1" stop-color="#EBDCFF" />
    </linearGradient>
    <linearGradient id="d" x1="37.788" x2="37.788" y1="22.06" y2="65.999"
      gradientUnits="userSpaceOnUse">
      <stop stop-color="#FFACCF" />
      <stop offset="1" stop-color="#FFCEE3" />
    </linearGradient>
    <linearGradient id="e" x1="37.788" x2="37.788" y1="66" y2="109.939"
      gradientUnits="userSpaceOnUse">
      <stop stop-color="#F685B6" />
      <stop offset="1" stop-color="#CA4A87" />
    </linearGradient>
    <clipPath id="a">
      <path fill="#fff" d="M0 0h445v132H0z" />
    </clipPath>
  </defs>
</svg>