<svg width="562" height="386" viewBox="0 0 562 386" fill="none" xmlns="http://www.w3.org/2000/svg">
<rect x="4" y="4" width="554" height="378" rx="16" fill="#202328" style="fill:#202328;fill:color(display-p3 0.1255 0.1373 0.1569);fill-opacity:1;"/>
<rect x="4" y="4" width="554" height="378" rx="16" stroke="#282C33" style="stroke:#282C33;stroke:color(display-p3 0.1569 0.1725 0.2000);stroke-opacity:1;" stroke-width="8"/>
<path d="M43.24 75V51.384H49.972C51.748 51.384 53.296 51.6 54.616 52.032C55.936 52.464 56.968 53.196 57.712 54.228C58.456 55.236 58.828 56.604 58.828 58.332C58.828 60.804 58.024 62.64 56.416 63.84C54.808 65.04 52.708 65.64 50.116 65.64H46.228V75H43.24ZM46.228 63.192H49.756C51.82 63.192 53.344 62.808 54.328 62.04C55.336 61.248 55.84 60.012 55.84 58.332C55.84 56.628 55.312 55.452 54.256 54.804C53.224 54.132 51.676 53.796 49.612 53.796H46.228V63.192ZM63.3426 75V57.504H65.7906L66.0426 60.672H66.1506C66.7506 59.568 67.4826 58.692 68.3466 58.044C69.2106 57.396 70.1346 57.072 71.1186 57.072C71.8146 57.072 72.4386 57.192 72.9906 57.432L72.4146 60.024C72.1266 59.928 71.8626 59.856 71.6226 59.808C71.3826 59.76 71.0826 59.736 70.7226 59.736C69.9786 59.736 69.1986 60.036 68.3826 60.636C67.5906 61.236 66.8946 62.28 66.2946 63.768V75H63.3426ZM82.2755 75.432C80.8595 75.432 79.5275 75.072 78.2795 74.352C77.0555 73.632 76.0595 72.588 75.2915 71.22C74.5475 69.852 74.1755 68.208 74.1755 66.288C74.1755 64.32 74.5475 62.652 75.2915 61.284C76.0595 59.916 77.0555 58.872 78.2795 58.152C79.5275 57.432 80.8595 57.072 82.2755 57.072C83.7155 57.072 85.0475 57.432 86.2715 58.152C87.4955 58.872 88.4795 59.916 89.2235 61.284C89.9915 62.652 90.3755 64.32 90.3755 66.288C90.3755 68.208 89.9915 69.852 89.2235 71.22C88.4795 72.588 87.4955 73.632 86.2715 74.352C85.0475 75.072 83.7155 75.432 82.2755 75.432ZM82.2755 72.984C83.7875 72.984 84.9995 72.372 85.9115 71.148C86.8475 69.9 87.3155 68.28 87.3155 66.288C87.3155 64.272 86.8475 62.64 85.9115 61.392C84.9995 60.144 83.7875 59.52 82.2755 59.52C80.7875 59.52 79.5755 60.144 78.6395 61.392C77.7035 62.64 77.2355 64.272 77.2355 66.288C77.2355 68.28 77.7035 69.9 78.6395 71.148C79.5755 72.372 80.7875 72.984 82.2755 72.984ZM93.1833 82.812C92.6553 82.812 92.1753 82.764 91.7432 82.668C91.2872 82.572 90.9032 82.464 90.5912 82.344L91.2032 80.112C91.4192 80.184 91.6712 80.244 91.9592 80.292C92.2473 80.364 92.5473 80.4 92.8593 80.4C93.7233 80.4 94.2993 80.088 94.5873 79.464C94.8753 78.864 95.0193 78.036 95.0193 76.98V57.504H97.9713V76.98C97.9713 78.756 97.6113 80.172 96.8913 81.228C96.1713 82.284 94.9353 82.812 93.1833 82.812ZM96.4593 53.904C95.8833 53.904 95.4033 53.736 95.0193 53.4C94.6593 53.04 94.4793 52.56 94.4793 51.96C94.4793 51.384 94.6593 50.916 95.0193 50.556C95.4033 50.196 95.8833 50.016 96.4593 50.016C97.0353 50.016 97.5033 50.196 97.8633 50.556C98.2473 50.916 98.4393 51.384 98.4393 51.96C98.4393 52.56 98.2473 53.04 97.8633 53.4C97.5033 53.736 97.0353 53.904 96.4593 53.904ZM110.97 75.432C109.41 75.432 107.994 75.072 106.722 74.352C105.45 73.608 104.442 72.552 103.698 71.184C102.954 69.816 102.582 68.184 102.582 66.288C102.582 64.368 102.954 62.724 103.698 61.356C104.466 59.988 105.45 58.932 106.65 58.188C107.85 57.444 109.11 57.072 110.43 57.072C112.662 57.072 114.378 57.816 115.578 59.304C116.802 60.792 117.414 62.784 117.414 65.28C117.414 65.592 117.402 65.904 117.378 66.216C117.378 66.504 117.354 66.756 117.306 66.972H105.498C105.618 68.82 106.194 70.296 107.226 71.4C108.282 72.504 109.65 73.056 111.33 73.056C112.17 73.056 112.938 72.936 113.634 72.696C114.354 72.432 115.038 72.096 115.686 71.688L116.73 73.632C115.986 74.112 115.134 74.532 114.174 74.892C113.238 75.252 112.17 75.432 110.97 75.432ZM105.462 64.848H114.822C114.822 63.072 114.438 61.728 113.67 60.816C112.926 59.88 111.87 59.412 110.502 59.412C109.278 59.412 108.174 59.892 107.19 60.852C106.23 61.788 105.654 63.12 105.462 64.848ZM128.649 75.432C127.113 75.432 125.721 75.072 124.473 74.352C123.225 73.632 122.241 72.588 121.521 71.22C120.801 69.852 120.441 68.208 120.441 66.288C120.441 64.32 120.825 62.652 121.593 61.284C122.385 59.916 123.417 58.872 124.689 58.152C125.985 57.432 127.377 57.072 128.865 57.072C130.017 57.072 131.001 57.276 131.817 57.684C132.657 58.092 133.377 58.572 133.977 59.124L132.465 61.068C131.961 60.612 131.421 60.24 130.845 59.952C130.293 59.664 129.669 59.52 128.973 59.52C127.917 59.52 126.969 59.808 126.129 60.384C125.313 60.936 124.665 61.728 124.185 62.76C123.729 63.768 123.501 64.944 123.501 66.288C123.501 68.28 123.993 69.9 124.977 71.148C125.985 72.372 127.293 72.984 128.901 72.984C129.717 72.984 130.473 72.816 131.169 72.48C131.865 72.12 132.477 71.7 133.005 71.22L134.301 73.2C133.509 73.896 132.633 74.448 131.673 74.856C130.713 75.24 129.705 75.432 128.649 75.432ZM143.312 75.432C141.44 75.432 140.132 74.892 139.388 73.812C138.668 72.732 138.308 71.328 138.308 69.6V59.916H135.716V57.684L138.452 57.504L138.812 52.608H141.296V57.504H146.012V59.916H141.296V69.636C141.296 70.716 141.488 71.556 141.872 72.156C142.28 72.732 142.988 73.02 143.996 73.02C144.308 73.02 144.644 72.972 145.004 72.876C145.364 72.756 145.688 72.648 145.976 72.552L146.552 74.784C146.072 74.952 145.544 75.096 144.968 75.216C144.416 75.36 143.864 75.432 143.312 75.432ZM164.267 75.432C162.707 75.432 161.291 75.072 160.019 74.352C158.747 73.608 157.739 72.552 156.995 71.184C156.251 69.816 155.879 68.184 155.879 66.288C155.879 64.368 156.251 62.724 156.995 61.356C157.763 59.988 158.747 58.932 159.947 58.188C161.147 57.444 162.407 57.072 163.727 57.072C165.959 57.072 167.675 57.816 168.875 59.304C170.099 60.792 170.711 62.784 170.711 65.28C170.711 65.592 170.699 65.904 170.675 66.216C170.675 66.504 170.651 66.756 170.603 66.972H158.795C158.915 68.82 159.491 70.296 160.523 71.4C161.579 72.504 162.947 73.056 164.627 73.056C165.467 73.056 166.235 72.936 166.931 72.696C167.651 72.432 168.335 72.096 168.983 71.688L170.027 73.632C169.283 74.112 168.431 74.532 167.471 74.892C166.535 75.252 165.467 75.432 164.267 75.432ZM158.759 64.848H168.119C168.119 63.072 167.735 61.728 166.967 60.816C166.223 59.88 165.167 59.412 163.799 59.412C162.575 59.412 161.471 59.892 160.487 60.852C159.527 61.788 158.951 63.12 158.759 64.848ZM172.34 75L178.064 65.856L172.772 57.504H175.976L178.316 61.356C178.58 61.812 178.856 62.292 179.144 62.796C179.432 63.3 179.732 63.792 180.044 64.272H180.188C180.452 63.792 180.716 63.3 180.98 62.796C181.244 62.292 181.508 61.812 181.772 61.356L183.896 57.504H186.992L181.7 66.18L187.388 75H184.184L181.628 70.932C181.316 70.404 181.004 69.876 180.692 69.348C180.38 68.82 180.056 68.304 179.72 67.8H179.576C179.264 68.304 178.964 68.82 178.676 69.348C178.388 69.852 178.1 70.38 177.812 70.932L175.436 75H172.34ZM194.535 75.432C193.071 75.432 191.847 75 190.863 74.136C189.903 73.248 189.423 72.024 189.423 70.464C189.423 68.544 190.275 67.08 191.979 66.072C193.707 65.04 196.431 64.32 200.151 63.912C200.151 63.168 200.043 62.46 199.827 61.788C199.635 61.116 199.275 60.576 198.747 60.168C198.243 59.736 197.511 59.52 196.551 59.52C195.543 59.52 194.595 59.712 193.707 60.096C192.819 60.48 192.027 60.912 191.331 61.392L190.179 59.34C190.995 58.812 191.991 58.308 193.167 57.828C194.367 57.324 195.663 57.072 197.055 57.072C199.191 57.072 200.739 57.732 201.699 59.052C202.659 60.348 203.139 62.088 203.139 64.272V75H200.691L200.439 72.912H200.331C199.515 73.584 198.615 74.172 197.631 74.676C196.671 75.18 195.639 75.432 194.535 75.432ZM195.399 73.056C196.239 73.056 197.031 72.852 197.775 72.444C198.519 72.036 199.311 71.46 200.151 70.716V65.856C197.247 66.216 195.207 66.756 194.031 67.476C192.879 68.196 192.303 69.12 192.303 70.248C192.303 71.232 192.603 71.952 193.203 72.408C193.803 72.84 194.535 73.056 195.399 73.056ZM208.643 75V57.504H211.091L211.343 60.024H211.451C212.219 59.184 213.059 58.488 213.971 57.936C214.883 57.36 215.855 57.072 216.887 57.072C218.231 57.072 219.275 57.372 220.019 57.972C220.787 58.548 221.351 59.364 221.711 60.42C222.623 59.436 223.547 58.632 224.483 58.008C225.419 57.384 226.415 57.072 227.471 57.072C229.271 57.072 230.603 57.66 231.467 58.836C232.355 59.988 232.799 61.68 232.799 63.912V75H229.847V64.308C229.847 62.676 229.583 61.488 229.055 60.744C228.527 60 227.711 59.628 226.607 59.628C225.311 59.628 223.847 60.528 222.215 62.328V75H219.263V64.308C219.263 62.676 218.999 61.488 218.471 60.744C217.943 60 217.115 59.628 215.987 59.628C214.691 59.628 213.227 60.528 211.595 62.328V75H208.643ZM238.491 82.38V57.504H240.939L241.191 59.52H241.299C242.091 58.848 242.955 58.272 243.891 57.792C244.851 57.312 245.847 57.072 246.879 57.072C249.135 57.072 250.851 57.888 252.027 59.52C253.203 61.128 253.791 63.288 253.791 66C253.791 67.968 253.431 69.66 252.711 71.076C252.015 72.492 251.091 73.572 249.939 74.316C248.811 75.06 247.575 75.432 246.231 75.432C245.415 75.432 244.599 75.252 243.783 74.892C242.991 74.532 242.187 74.04 241.371 73.416L241.443 76.476V82.38H238.491ZM245.727 72.948C247.167 72.948 248.355 72.336 249.291 71.112C250.251 69.864 250.731 68.16 250.731 66C250.731 64.08 250.371 62.532 249.651 61.356C248.955 60.156 247.779 59.556 246.123 59.556C245.379 59.556 244.623 59.76 243.855 60.168C243.111 60.576 242.307 61.164 241.443 61.932V71.112C242.235 71.784 243.003 72.264 243.747 72.552C244.491 72.816 245.151 72.948 245.727 72.948ZM261.592 75.432C260.488 75.432 259.684 75.096 259.18 74.424C258.7 73.728 258.46 72.744 258.46 71.472V49.368H261.412V71.688C261.412 72.144 261.496 72.48 261.664 72.696C261.832 72.888 262.024 72.984 262.24 72.984C262.336 72.984 262.42 72.984 262.492 72.984C262.588 72.96 262.72 72.936 262.888 72.912L263.284 75.144C263.092 75.24 262.864 75.312 262.6 75.36C262.336 75.408 262 75.432 261.592 75.432ZM274.728 75.432C273.168 75.432 271.752 75.072 270.48 74.352C269.208 73.608 268.2 72.552 267.456 71.184C266.712 69.816 266.34 68.184 266.34 66.288C266.34 64.368 266.712 62.724 267.456 61.356C268.224 59.988 269.208 58.932 270.408 58.188C271.608 57.444 272.868 57.072 274.188 57.072C276.42 57.072 278.136 57.816 279.336 59.304C280.56 60.792 281.172 62.784 281.172 65.28C281.172 65.592 281.16 65.904 281.136 66.216C281.136 66.504 281.112 66.756 281.064 66.972H269.256C269.376 68.82 269.952 70.296 270.984 71.4C272.04 72.504 273.408 73.056 275.088 73.056C275.928 73.056 276.696 72.936 277.392 72.696C278.112 72.432 278.796 72.096 279.444 71.688L280.488 73.632C279.744 74.112 278.892 74.532 277.932 74.892C276.996 75.252 275.928 75.432 274.728 75.432ZM269.22 64.848H278.58C278.58 63.072 278.196 61.728 277.428 60.816C276.684 59.88 275.628 59.412 274.26 59.412C273.036 59.412 271.932 59.892 270.948 60.852C269.988 61.788 269.412 63.12 269.22 64.848Z" fill="#EFEEF9" style="fill:#EFEEF9;fill:color(display-p3 0.9384 0.9344 0.9750);fill-opacity:1;"/>
<path d="M41.312 109V97.608H42.624V100.712L42.576 102.312C42.9493 101.96 43.3387 101.661 43.744 101.416C44.16 101.16 44.6347 101.032 45.168 101.032C45.9893 101.032 46.5867 101.293 46.96 101.816C47.344 102.328 47.536 103.08 47.536 104.072V109H46.224V104.248C46.224 103.523 46.1067 102.995 45.872 102.664C45.6373 102.333 45.264 102.168 44.752 102.168C44.3573 102.168 44 102.269 43.68 102.472C43.3707 102.675 43.0187 102.973 42.624 103.368V109H41.312ZM52.4631 109.192C51.6311 109.192 51.0498 108.952 50.7191 108.472C50.3991 107.992 50.2391 107.368 50.2391 106.6V102.296H49.0871V101.304L50.3031 101.224L50.4631 99.048H51.5671V101.224H53.6631V102.296H51.5671V106.616C51.5671 107.096 51.6525 107.469 51.8231 107.736C52.0045 107.992 52.3191 108.12 52.7671 108.12C52.9058 108.12 53.0551 108.099 53.2151 108.056C53.3751 108.003 53.5191 107.955 53.6471 107.912L53.9031 108.904C53.6898 108.979 53.4551 109.043 53.1991 109.096C52.9538 109.16 52.7085 109.192 52.4631 109.192ZM57.5569 109.192C56.7249 109.192 56.1435 108.952 55.8129 108.472C55.4929 107.992 55.3329 107.368 55.3329 106.6V102.296H54.1809V101.304L55.3969 101.224L55.5569 99.048H56.6609V101.224H58.7569V102.296H56.6609V106.616C56.6609 107.096 56.7462 107.469 56.9169 107.736C57.0982 107.992 57.4129 108.12 57.8609 108.12C57.9995 108.12 58.1489 108.099 58.3089 108.056C58.4689 108.003 58.6129 107.955 58.7409 107.912L58.9969 108.904C58.7835 108.979 58.5489 109.043 58.2929 109.096C58.0475 109.16 57.8022 109.192 57.5569 109.192ZM60.5151 112.28V101.224H61.6031L61.7151 102.12H61.7631C62.1151 101.821 62.4991 101.565 62.9151 101.352C63.3418 101.139 63.7845 101.032 64.2431 101.032C65.2458 101.032 66.0085 101.395 66.5311 102.12C67.0538 102.835 67.3151 103.795 67.3151 105C67.3151 105.875 67.1551 106.627 66.8351 107.256C66.5258 107.885 66.1151 108.365 65.6031 108.696C65.1018 109.027 64.5525 109.192 63.9551 109.192C63.5925 109.192 63.2298 109.112 62.8671 108.952C62.5151 108.792 62.1578 108.573 61.7951 108.296L61.8271 109.656V112.28H60.5151ZM63.7311 108.088C64.3711 108.088 64.8991 107.816 65.3151 107.272C65.7418 106.717 65.9551 105.96 65.9551 105C65.9551 104.147 65.7951 103.459 65.4751 102.936C65.1658 102.403 64.6431 102.136 63.9071 102.136C63.5765 102.136 63.2405 102.227 62.8991 102.408C62.5685 102.589 62.2111 102.851 61.8271 103.192V107.272C62.1791 107.571 62.5205 107.784 62.8511 107.912C63.1818 108.029 63.4751 108.088 63.7311 108.088ZM71.4221 109.192C70.8675 109.192 70.3395 109.091 69.8381 108.888C69.3368 108.675 68.8995 108.419 68.5261 108.12L69.1821 107.24C69.5235 107.507 69.8755 107.731 70.2381 107.912C70.6008 108.083 71.0115 108.168 71.4701 108.168C71.9821 108.168 72.3661 108.051 72.6221 107.816C72.8781 107.571 73.0061 107.283 73.0061 106.952C73.0061 106.685 72.9155 106.461 72.7341 106.28C72.5635 106.099 72.3395 105.949 72.0621 105.832C71.7955 105.704 71.5181 105.587 71.2301 105.48C70.8675 105.341 70.5101 105.187 70.1581 105.016C69.8061 104.835 69.5181 104.605 69.2941 104.328C69.0701 104.04 68.9581 103.677 68.9581 103.24C68.9581 102.611 69.1928 102.088 69.6621 101.672C70.1421 101.245 70.8035 101.032 71.6461 101.032C72.1261 101.032 72.5741 101.117 72.9901 101.288C73.4061 101.459 73.7635 101.667 74.0621 101.912L73.4221 102.744C73.1555 102.541 72.8781 102.376 72.5901 102.248C72.3021 102.12 71.9875 102.056 71.6461 102.056C71.1555 102.056 70.7928 102.168 70.5581 102.392C70.3341 102.616 70.2221 102.877 70.2221 103.176C70.2221 103.421 70.3021 103.624 70.4621 103.784C70.6221 103.933 70.8301 104.067 71.0861 104.184C71.3421 104.291 71.6141 104.403 71.9021 104.52C72.2755 104.659 72.6435 104.819 73.0061 105C73.3688 105.171 73.6675 105.405 73.9021 105.704C74.1475 105.992 74.2701 106.381 74.2701 106.872C74.2701 107.288 74.1581 107.672 73.9341 108.024C73.7208 108.376 73.4008 108.659 72.9741 108.872C72.5581 109.085 72.0408 109.192 71.4221 109.192ZM76.7812 103.416C76.5146 103.416 76.2853 103.325 76.0933 103.144C75.9119 102.952 75.8213 102.712 75.8213 102.424C75.8213 102.115 75.9119 101.869 76.0933 101.688C76.2853 101.496 76.5146 101.4 76.7812 101.4C77.0373 101.4 77.2559 101.496 77.4373 101.688C77.6293 101.869 77.7253 102.115 77.7253 102.424C77.7253 102.712 77.6293 102.952 77.4373 103.144C77.2559 103.325 77.0373 103.416 76.7812 103.416ZM76.7812 109.192C76.5146 109.192 76.2853 109.101 76.0933 108.92C75.9119 108.728 75.8213 108.488 75.8213 108.2C75.8213 107.891 75.9119 107.645 76.0933 107.464C76.2853 107.272 76.5146 107.176 76.7812 107.176C77.0373 107.176 77.2559 107.272 77.4373 107.464C77.6293 107.645 77.7253 107.891 77.7253 108.2C77.7253 108.488 77.6293 108.728 77.4373 108.92C77.2559 109.101 77.0373 109.192 76.7812 109.192ZM78.9256 111.56L83.1976 97.64H84.1576L79.8856 111.56H78.9256ZM84.5194 111.56L88.7914 97.64H89.7514L85.4794 111.56H84.5194ZM93.7329 112.584C92.7835 112.584 92.0102 112.403 91.4129 112.04C90.8155 111.677 90.5169 111.16 90.5169 110.488C90.5169 110.157 90.6182 109.837 90.8209 109.528C91.0235 109.229 91.3009 108.963 91.6529 108.728V108.664C91.4609 108.547 91.2955 108.381 91.1569 108.168C91.0289 107.955 90.9649 107.699 90.9649 107.4C90.9649 107.069 91.0555 106.781 91.2369 106.536C91.4182 106.291 91.6102 106.099 91.8129 105.96V105.896C91.5569 105.683 91.3222 105.395 91.1089 105.032C90.9062 104.669 90.8049 104.259 90.8049 103.8C90.8049 103.235 90.9382 102.744 91.2049 102.328C91.4715 101.912 91.8289 101.592 92.2769 101.368C92.7249 101.144 93.2102 101.032 93.7329 101.032C93.9462 101.032 94.1489 101.053 94.3409 101.096C94.5329 101.128 94.6982 101.171 94.8369 101.224H97.5409V102.232H95.9409C96.1222 102.403 96.2715 102.632 96.3889 102.92C96.5169 103.197 96.5809 103.501 96.5809 103.832C96.5809 104.387 96.4529 104.867 96.1969 105.272C95.9409 105.677 95.5995 105.992 95.1729 106.216C94.7462 106.429 94.2662 106.536 93.7329 106.536C93.3169 106.536 92.9275 106.445 92.5649 106.264C92.4262 106.381 92.3089 106.515 92.2129 106.664C92.1169 106.803 92.0689 106.979 92.0689 107.192C92.0689 107.437 92.1649 107.64 92.3569 107.8C92.5595 107.96 92.9222 108.04 93.4449 108.04H94.9489C95.8555 108.04 96.5329 108.189 96.9809 108.488C97.4395 108.776 97.6689 109.245 97.6689 109.896C97.6689 110.376 97.5089 110.819 97.1889 111.224C96.8689 111.629 96.4155 111.955 95.8289 112.2C95.2422 112.456 94.5435 112.584 93.7329 112.584ZM93.7329 105.656C94.1809 105.656 94.5649 105.491 94.8849 105.16C95.2155 104.819 95.3809 104.365 95.3809 103.8C95.3809 103.235 95.2209 102.792 94.9009 102.472C94.5809 102.152 94.1915 101.992 93.7329 101.992C93.2742 101.992 92.8849 102.152 92.5649 102.472C92.2449 102.792 92.0849 103.235 92.0849 103.8C92.0849 104.365 92.2449 104.819 92.5649 105.16C92.8955 105.491 93.2849 105.656 93.7329 105.656ZM93.9249 111.672C94.6715 111.672 95.2689 111.507 95.7169 111.176C96.1649 110.856 96.3889 110.493 96.3889 110.088C96.3889 109.725 96.2502 109.475 95.9729 109.336C95.7062 109.197 95.3222 109.128 94.8209 109.128H93.4769C93.3275 109.128 93.1622 109.117 92.9809 109.096C92.8102 109.075 92.6395 109.043 92.4689 109C92.1915 109.203 91.9889 109.416 91.8609 109.64C91.7329 109.864 91.6689 110.088 91.6689 110.312C91.6689 110.728 91.8662 111.059 92.2609 111.304C92.6662 111.549 93.2209 111.672 93.9249 111.672ZM99.1714 109V101.224H100.483V109H99.1714ZM99.8434 99.624C99.5874 99.624 99.374 99.5493 99.2034 99.4C99.0434 99.24 98.9634 99.0267 98.9634 98.76C98.9634 98.504 99.0434 98.296 99.2034 98.136C99.374 97.976 99.5874 97.896 99.8434 97.896C100.099 97.896 100.307 97.976 100.467 98.136C100.638 98.296 100.723 98.504 100.723 98.76C100.723 99.0267 100.638 99.24 100.467 99.4C100.307 99.5493 100.099 99.624 99.8434 99.624ZM105.557 109.192C104.725 109.192 104.144 108.952 103.813 108.472C103.493 107.992 103.333 107.368 103.333 106.6V102.296H102.181V101.304L103.397 101.224L103.557 99.048H104.661V101.224H106.757V102.296H104.661V106.616C104.661 107.096 104.746 107.469 104.917 107.736C105.098 107.992 105.413 108.12 105.861 108.12C106 108.12 106.149 108.099 106.309 108.056C106.469 108.003 106.613 107.955 106.741 107.912L106.997 108.904C106.784 108.979 106.549 109.043 106.293 109.096C106.048 109.16 105.802 109.192 105.557 109.192ZM108.515 109V97.608H109.827V100.712L109.779 102.312C110.152 101.96 110.542 101.661 110.947 101.416C111.363 101.16 111.838 101.032 112.371 101.032C113.192 101.032 113.79 101.293 114.163 101.816C114.547 102.328 114.739 103.08 114.739 104.072V109H113.427V104.248C113.427 103.523 113.31 102.995 113.075 102.664C112.84 102.333 112.467 102.168 111.955 102.168C111.56 102.168 111.203 102.269 110.883 102.472C110.574 102.675 110.222 102.973 109.827 103.368V109H108.515ZM119.49 109.192C118.669 109.192 118.066 108.936 117.682 108.424C117.298 107.901 117.106 107.144 117.106 106.152V101.224H118.434V105.976C118.434 106.701 118.546 107.229 118.77 107.56C119.005 107.891 119.378 108.056 119.89 108.056C120.296 108.056 120.653 107.955 120.962 107.752C121.282 107.539 121.624 107.203 121.986 106.744V101.224H123.298V109H122.21L122.098 107.784H122.05C121.688 108.211 121.304 108.552 120.898 108.808C120.493 109.064 120.024 109.192 119.49 109.192ZM129.361 109.192C128.999 109.192 128.62 109.107 128.225 108.936C127.841 108.755 127.479 108.509 127.137 108.2H127.089L126.977 109H125.921V97.608H127.233V100.712L127.201 102.12C127.553 101.811 127.937 101.555 128.353 101.352C128.78 101.139 129.207 101.032 129.633 101.032C130.647 101.032 131.415 101.389 131.937 102.104C132.46 102.819 132.721 103.779 132.721 104.984C132.721 105.869 132.561 106.627 132.241 107.256C131.932 107.885 131.521 108.365 131.009 108.696C130.508 109.027 129.959 109.192 129.361 109.192ZM129.137 108.088C129.777 108.088 130.305 107.816 130.721 107.272C131.148 106.717 131.361 105.96 131.361 105C131.361 104.147 131.201 103.459 130.881 102.936C130.572 102.403 130.049 102.136 129.313 102.136C128.983 102.136 128.647 102.227 128.305 102.408C127.964 102.589 127.607 102.851 127.233 103.192V107.272C127.575 107.571 127.911 107.784 128.241 107.912C128.583 108.029 128.881 108.088 129.137 108.088ZM135.297 109.192C135.03 109.192 134.801 109.101 134.609 108.92C134.428 108.728 134.337 108.488 134.337 108.2C134.337 107.891 134.428 107.645 134.609 107.464C134.801 107.272 135.03 107.176 135.297 107.176C135.553 107.176 135.772 107.272 135.953 107.464C136.145 107.645 136.241 107.891 136.241 108.2C136.241 108.488 136.145 108.728 135.953 108.92C135.772 109.101 135.553 109.192 135.297 109.192ZM141.493 109.192C140.811 109.192 140.192 109.032 139.637 108.712C139.083 108.392 138.645 107.928 138.325 107.32C138.005 106.712 137.845 105.981 137.845 105.128C137.845 104.253 138.016 103.512 138.357 102.904C138.709 102.296 139.168 101.832 139.733 101.512C140.309 101.192 140.928 101.032 141.589 101.032C142.101 101.032 142.539 101.123 142.901 101.304C143.275 101.485 143.595 101.699 143.861 101.944L143.189 102.808C142.965 102.605 142.725 102.44 142.469 102.312C142.224 102.184 141.947 102.12 141.637 102.12C141.168 102.12 140.747 102.248 140.373 102.504C140.011 102.749 139.723 103.101 139.509 103.56C139.307 104.008 139.205 104.531 139.205 105.128C139.205 106.013 139.424 106.733 139.861 107.288C140.309 107.832 140.891 108.104 141.605 108.104C141.968 108.104 142.304 108.029 142.613 107.88C142.923 107.72 143.195 107.533 143.429 107.32L144.005 108.2C143.653 108.509 143.264 108.755 142.837 108.936C142.411 109.107 141.963 109.192 141.493 109.192ZM148.399 109.192C147.769 109.192 147.177 109.032 146.623 108.712C146.079 108.392 145.636 107.928 145.295 107.32C144.964 106.712 144.799 105.981 144.799 105.128C144.799 104.253 144.964 103.512 145.295 102.904C145.636 102.296 146.079 101.832 146.623 101.512C147.177 101.192 147.769 101.032 148.399 101.032C149.039 101.032 149.631 101.192 150.175 101.512C150.719 101.832 151.156 102.296 151.487 102.904C151.828 103.512 151.999 104.253 151.999 105.128C151.999 105.981 151.828 106.712 151.487 107.32C151.156 107.928 150.719 108.392 150.175 108.712C149.631 109.032 149.039 109.192 148.399 109.192ZM148.399 108.104C149.071 108.104 149.609 107.832 150.015 107.288C150.431 106.733 150.639 106.013 150.639 105.128C150.639 104.232 150.431 103.507 150.015 102.952C149.609 102.397 149.071 102.12 148.399 102.12C147.737 102.12 147.199 102.397 146.783 102.952C146.367 103.507 146.159 104.232 146.159 105.128C146.159 106.013 146.367 106.733 146.783 107.288C147.199 107.832 147.737 108.104 148.399 108.104ZM154.046 109V101.224H155.134L155.246 102.344H155.294C155.636 101.971 156.009 101.661 156.414 101.416C156.82 101.16 157.252 101.032 157.71 101.032C158.308 101.032 158.772 101.165 159.102 101.432C159.444 101.688 159.694 102.051 159.854 102.52C160.26 102.083 160.67 101.725 161.086 101.448C161.502 101.171 161.945 101.032 162.414 101.032C163.214 101.032 163.806 101.293 164.19 101.816C164.585 102.328 164.782 103.08 164.782 104.072V109H163.47V104.248C163.47 103.523 163.353 102.995 163.118 102.664C162.884 102.333 162.521 102.168 162.03 102.168C161.454 102.168 160.804 102.568 160.078 103.368V109H158.766V104.248C158.766 103.523 158.649 102.995 158.414 102.664C158.18 102.333 157.812 102.168 157.31 102.168C156.734 102.168 156.084 102.568 155.358 103.368V109H154.046ZM166.16 111.56L170.432 97.64H171.392L167.12 111.56H166.16ZM174.938 109.192C174.383 109.192 173.855 109.091 173.354 108.888C172.852 108.675 172.415 108.419 172.042 108.12L172.698 107.24C173.039 107.507 173.391 107.731 173.754 107.912C174.116 108.083 174.527 108.168 174.986 108.168C175.498 108.168 175.882 108.051 176.138 107.816C176.394 107.571 176.522 107.283 176.522 106.952C176.522 106.685 176.431 106.461 176.25 106.28C176.079 106.099 175.855 105.949 175.578 105.832C175.311 105.704 175.034 105.587 174.746 105.48C174.383 105.341 174.026 105.187 173.674 105.016C173.322 104.835 173.034 104.605 172.81 104.328C172.586 104.04 172.474 103.677 172.474 103.24C172.474 102.611 172.708 102.088 173.178 101.672C173.658 101.245 174.319 101.032 175.162 101.032C175.642 101.032 176.09 101.117 176.506 101.288C176.922 101.459 177.279 101.667 177.578 101.912L176.938 102.744C176.671 102.541 176.394 102.376 176.106 102.248C175.818 102.12 175.503 102.056 175.162 102.056C174.671 102.056 174.308 102.168 174.074 102.392C173.85 102.616 173.738 102.877 173.738 103.176C173.738 103.421 173.818 103.624 173.978 103.784C174.138 103.933 174.346 104.067 174.602 104.184C174.858 104.291 175.13 104.403 175.418 104.52C175.791 104.659 176.159 104.819 176.522 105C176.884 105.171 177.183 105.405 177.418 105.704C177.663 105.992 177.786 106.381 177.786 106.872C177.786 107.288 177.674 107.672 177.45 108.024C177.236 108.376 176.916 108.659 176.49 108.872C176.074 109.085 175.556 109.192 174.938 109.192ZM182.633 109.192C182.004 109.192 181.412 109.032 180.857 108.712C180.313 108.392 179.87 107.928 179.529 107.32C179.198 106.712 179.033 105.981 179.033 105.128C179.033 104.253 179.198 103.512 179.529 102.904C179.87 102.296 180.313 101.832 180.857 101.512C181.412 101.192 182.004 101.032 182.633 101.032C183.273 101.032 183.865 101.192 184.409 101.512C184.953 101.832 185.39 102.296 185.721 102.904C186.062 103.512 186.233 104.253 186.233 105.128C186.233 105.981 186.062 106.712 185.721 107.32C185.39 107.928 184.953 108.392 184.409 108.712C183.865 109.032 183.273 109.192 182.633 109.192ZM182.633 108.104C183.305 108.104 183.844 107.832 184.249 107.288C184.665 106.733 184.873 106.013 184.873 105.128C184.873 104.232 184.665 103.507 184.249 102.952C183.844 102.397 183.305 102.12 182.633 102.12C181.972 102.12 181.433 102.397 181.017 102.952C180.601 103.507 180.393 104.232 180.393 105.128C180.393 106.013 180.601 106.733 181.017 107.288C181.433 107.832 181.972 108.104 182.633 108.104ZM188.281 109V101.224H189.369L189.481 102.344H189.529C189.87 101.971 190.243 101.661 190.649 101.416C191.054 101.16 191.486 101.032 191.945 101.032C192.542 101.032 193.006 101.165 193.337 101.432C193.678 101.688 193.929 102.051 194.089 102.52C194.494 102.083 194.905 101.725 195.321 101.448C195.737 101.171 196.179 101.032 196.649 101.032C197.449 101.032 198.041 101.293 198.425 101.816C198.819 102.328 199.017 103.08 199.017 104.072V109H197.705V104.248C197.705 103.523 197.587 102.995 197.353 102.664C197.118 102.333 196.755 102.168 196.265 102.168C195.689 102.168 195.038 102.568 194.313 103.368V109H193.001V104.248C193.001 103.523 192.883 102.995 192.649 102.664C192.414 102.333 192.046 102.168 191.545 102.168C190.969 102.168 190.318 102.568 189.593 103.368V109H188.281ZM204.698 109.192C204.005 109.192 203.376 109.032 202.81 108.712C202.245 108.381 201.797 107.912 201.466 107.304C201.136 106.696 200.97 105.971 200.97 105.128C200.97 104.275 201.136 103.544 201.466 102.936C201.808 102.328 202.245 101.859 202.778 101.528C203.312 101.197 203.872 101.032 204.458 101.032C205.45 101.032 206.213 101.363 206.746 102.024C207.29 102.685 207.562 103.571 207.562 104.68C207.562 104.819 207.557 104.957 207.546 105.096C207.546 105.224 207.536 105.336 207.514 105.432H202.266C202.32 106.253 202.576 106.909 203.034 107.4C203.504 107.891 204.112 108.136 204.858 108.136C205.232 108.136 205.573 108.083 205.882 107.976C206.202 107.859 206.506 107.709 206.794 107.528L207.258 108.392C206.928 108.605 206.549 108.792 206.122 108.952C205.706 109.112 205.232 109.192 204.698 109.192ZM202.25 104.488H206.41C206.41 103.699 206.24 103.101 205.898 102.696C205.568 102.28 205.098 102.072 204.49 102.072C203.946 102.072 203.456 102.285 203.018 102.712C202.592 103.128 202.336 103.72 202.25 104.488ZM211.42 103.128L210.924 104.728H214.076L213.58 103.128C213.388 102.541 213.207 101.96 213.036 101.384C212.865 100.797 212.695 100.2 212.524 99.592H212.46C212.3 100.2 212.135 100.797 211.964 101.384C211.793 101.96 211.612 102.541 211.42 103.128ZM208.22 109L211.772 98.504H213.276L216.828 109H215.404L214.412 105.8H210.588L209.58 109H208.22ZM221.259 109.192C220.576 109.192 219.958 109.032 219.403 108.712C218.848 108.392 218.411 107.928 218.091 107.32C217.771 106.712 217.611 105.981 217.611 105.128C217.611 104.253 217.782 103.512 218.123 102.904C218.475 102.296 218.934 101.832 219.499 101.512C220.075 101.192 220.694 101.032 221.355 101.032C221.867 101.032 222.304 101.123 222.667 101.304C223.04 101.485 223.36 101.699 223.627 101.944L222.955 102.808C222.731 102.605 222.491 102.44 222.235 102.312C221.99 102.184 221.712 102.12 221.403 102.12C220.934 102.12 220.512 102.248 220.139 102.504C219.776 102.749 219.488 103.101 219.275 103.56C219.072 104.008 218.971 104.531 218.971 105.128C218.971 106.013 219.19 106.733 219.627 107.288C220.075 107.832 220.656 108.104 221.371 108.104C221.734 108.104 222.07 108.029 222.379 107.88C222.688 107.72 222.96 107.533 223.195 107.32L223.771 108.2C223.419 108.509 223.03 108.755 222.603 108.936C222.176 109.107 221.728 109.192 221.259 109.192ZM228.212 109.192C227.529 109.192 226.911 109.032 226.356 108.712C225.801 108.392 225.364 107.928 225.044 107.32C224.724 106.712 224.564 105.981 224.564 105.128C224.564 104.253 224.735 103.512 225.076 102.904C225.428 102.296 225.887 101.832 226.452 101.512C227.028 101.192 227.647 101.032 228.308 101.032C228.82 101.032 229.257 101.123 229.62 101.304C229.993 101.485 230.313 101.699 230.58 101.944L229.908 102.808C229.684 102.605 229.444 102.44 229.188 102.312C228.943 102.184 228.665 102.12 228.356 102.12C227.887 102.12 227.465 102.248 227.092 102.504C226.729 102.749 226.441 103.101 226.228 103.56C226.025 104.008 225.924 104.531 225.924 105.128C225.924 106.013 226.143 106.733 226.58 107.288C227.028 107.832 227.609 108.104 228.324 108.104C228.687 108.104 229.023 108.029 229.332 107.88C229.641 107.72 229.913 107.533 230.148 107.32L230.724 108.2C230.372 108.509 229.983 108.755 229.556 108.936C229.129 109.107 228.681 109.192 228.212 109.192ZM235.117 109.192C234.488 109.192 233.896 109.032 233.341 108.712C232.797 108.392 232.355 107.928 232.013 107.32C231.683 106.712 231.517 105.981 231.517 105.128C231.517 104.253 231.683 103.512 232.013 102.904C232.355 102.296 232.797 101.832 233.341 101.512C233.896 101.192 234.488 101.032 235.117 101.032C235.757 101.032 236.349 101.192 236.893 101.512C237.437 101.832 237.875 102.296 238.205 102.904C238.547 103.512 238.717 104.253 238.717 105.128C238.717 105.981 238.547 106.712 238.205 107.32C237.875 107.928 237.437 108.392 236.893 108.712C236.349 109.032 235.757 109.192 235.117 109.192ZM235.117 108.104C235.789 108.104 236.328 107.832 236.733 107.288C237.149 106.733 237.357 106.013 237.357 105.128C237.357 104.232 237.149 103.507 236.733 102.952C236.328 102.397 235.789 102.12 235.117 102.12C234.456 102.12 233.917 102.397 233.501 102.952C233.085 103.507 232.877 104.232 232.877 105.128C232.877 106.013 233.085 106.733 233.501 107.288C233.917 107.832 234.456 108.104 235.117 108.104ZM243.037 109.192C242.216 109.192 241.613 108.936 241.229 108.424C240.845 107.901 240.653 107.144 240.653 106.152V101.224H241.981V105.976C241.981 106.701 242.093 107.229 242.317 107.56C242.552 107.891 242.925 108.056 243.437 108.056C243.842 108.056 244.2 107.955 244.509 107.752C244.829 107.539 245.17 107.203 245.533 106.744V101.224H246.845V109H245.757L245.645 107.784H245.597C245.234 108.211 244.85 108.552 244.445 108.808C244.04 109.064 243.57 109.192 243.037 109.192ZM249.468 109V101.224H250.556L250.668 102.344H250.716C251.09 101.971 251.484 101.661 251.9 101.416C252.316 101.16 252.791 101.032 253.324 101.032C254.146 101.032 254.743 101.293 255.116 101.816C255.5 102.328 255.692 103.08 255.692 104.072V109H254.38V104.248C254.38 103.523 254.263 102.995 254.028 102.664C253.794 102.333 253.42 102.168 252.908 102.168C252.514 102.168 252.156 102.269 251.836 102.472C251.527 102.675 251.175 102.973 250.78 103.368V109H249.468ZM260.666 109.192C259.834 109.192 259.253 108.952 258.922 108.472C258.602 107.992 258.442 107.368 258.442 106.6V102.296H257.29V101.304L258.506 101.224L258.666 99.048H259.77V101.224H261.866V102.296H259.77V106.616C259.77 107.096 259.856 107.469 260.026 107.736C260.208 107.992 260.522 108.12 260.97 108.12C261.109 108.12 261.258 108.099 261.418 108.056C261.578 108.003 261.722 107.955 261.85 107.912L262.106 108.904C261.893 108.979 261.658 109.043 261.402 109.096C261.157 109.16 260.912 109.192 260.666 109.192ZM262.629 111.56L266.901 97.64H267.861L263.589 111.56H262.629ZM271.407 109.192C270.852 109.192 270.324 109.091 269.823 108.888C269.321 108.675 268.884 108.419 268.511 108.12L269.167 107.24C269.508 107.507 269.86 107.731 270.223 107.912C270.585 108.083 270.996 108.168 271.455 108.168C271.967 108.168 272.351 108.051 272.607 107.816C272.863 107.571 272.991 107.283 272.991 106.952C272.991 106.685 272.9 106.461 272.719 106.28C272.548 106.099 272.324 105.949 272.047 105.832C271.78 105.704 271.503 105.587 271.215 105.48C270.852 105.341 270.495 105.187 270.143 105.016C269.791 104.835 269.503 104.605 269.279 104.328C269.055 104.04 268.943 103.677 268.943 103.24C268.943 102.611 269.177 102.088 269.647 101.672C270.127 101.245 270.788 101.032 271.631 101.032C272.111 101.032 272.559 101.117 272.975 101.288C273.391 101.459 273.748 101.667 274.047 101.912L273.407 102.744C273.14 102.541 272.863 102.376 272.575 102.248C272.287 102.12 271.972 102.056 271.631 102.056C271.14 102.056 270.777 102.168 270.543 102.392C270.319 102.616 270.207 102.877 270.207 103.176C270.207 103.421 270.287 103.624 270.447 103.784C270.607 103.933 270.815 104.067 271.071 104.184C271.327 104.291 271.599 104.403 271.887 104.52C272.26 104.659 272.628 104.819 272.991 105C273.353 105.171 273.652 105.405 273.887 105.704C274.132 105.992 274.255 106.381 274.255 106.872C274.255 107.288 274.143 107.672 273.919 108.024C273.705 108.376 273.385 108.659 272.959 108.872C272.543 109.085 272.025 109.192 271.407 109.192ZM279.102 109.192C278.472 109.192 277.88 109.032 277.326 108.712C276.782 108.392 276.339 107.928 275.998 107.32C275.667 106.712 275.502 105.981 275.502 105.128C275.502 104.253 275.667 103.512 275.998 102.904C276.339 102.296 276.782 101.832 277.326 101.512C277.88 101.192 278.472 101.032 279.102 101.032C279.742 101.032 280.334 101.192 280.878 101.512C281.422 101.832 281.859 102.296 282.19 102.904C282.531 103.512 282.702 104.253 282.702 105.128C282.702 105.981 282.531 106.712 282.19 107.32C281.859 107.928 281.422 108.392 280.878 108.712C280.334 109.032 279.742 109.192 279.102 109.192ZM279.102 108.104C279.774 108.104 280.312 107.832 280.718 107.288C281.134 106.733 281.342 106.013 281.342 105.128C281.342 104.232 281.134 103.507 280.718 102.952C280.312 102.397 279.774 102.12 279.102 102.12C278.44 102.12 277.902 102.397 277.486 102.952C277.07 103.507 276.862 104.232 276.862 105.128C276.862 106.013 277.07 106.733 277.486 107.288C277.902 107.832 278.44 108.104 279.102 108.104ZM284.75 109V101.224H285.838L285.95 102.344H285.998C286.339 101.971 286.712 101.661 287.118 101.416C287.523 101.16 287.955 101.032 288.414 101.032C289.011 101.032 289.475 101.165 289.806 101.432C290.147 101.688 290.398 102.051 290.558 102.52C290.963 102.083 291.374 101.725 291.79 101.448C292.206 101.171 292.648 101.032 293.118 101.032C293.918 101.032 294.51 101.293 294.894 101.816C295.288 102.328 295.486 103.08 295.486 104.072V109H294.174V104.248C294.174 103.523 294.056 102.995 293.822 102.664C293.587 102.333 293.224 102.168 292.734 102.168C292.158 102.168 291.507 102.568 290.782 103.368V109H289.47V104.248C289.47 103.523 289.352 102.995 289.118 102.664C288.883 102.333 288.515 102.168 288.014 102.168C287.438 102.168 286.787 102.568 286.062 103.368V109H284.75ZM301.167 109.192C300.474 109.192 299.844 109.032 299.279 108.712C298.714 108.381 298.266 107.912 297.935 107.304C297.604 106.696 297.439 105.971 297.439 105.128C297.439 104.275 297.604 103.544 297.935 102.936C298.276 102.328 298.714 101.859 299.247 101.528C299.78 101.197 300.34 101.032 300.927 101.032C301.919 101.032 302.682 101.363 303.215 102.024C303.759 102.685 304.031 103.571 304.031 104.68C304.031 104.819 304.026 104.957 304.015 105.096C304.015 105.224 304.004 105.336 303.983 105.432H298.735C298.788 106.253 299.044 106.909 299.503 107.4C299.972 107.891 300.58 108.136 301.327 108.136C301.7 108.136 302.042 108.083 302.351 107.976C302.671 107.859 302.975 107.709 303.263 107.528L303.727 108.392C303.396 108.605 303.018 108.792 302.591 108.952C302.175 109.112 301.7 109.192 301.167 109.192ZM298.719 104.488H302.879C302.879 103.699 302.708 103.101 302.367 102.696C302.036 102.28 301.567 102.072 300.959 102.072C300.415 102.072 299.924 102.285 299.487 102.712C299.06 103.128 298.804 103.72 298.719 104.488ZM306.081 109V98.504H309.073C309.862 98.504 310.55 98.6 311.137 98.792C311.723 98.984 312.182 99.3093 312.513 99.768C312.843 100.216 313.009 100.824 313.009 101.592C313.009 102.691 312.651 103.507 311.937 104.04C311.222 104.573 310.289 104.84 309.137 104.84H307.409V109H306.081ZM307.409 103.752H308.977C309.894 103.752 310.571 103.581 311.009 103.24C311.457 102.888 311.681 102.339 311.681 101.592C311.681 100.835 311.446 100.312 310.977 100.024C310.518 99.7253 309.83 99.576 308.913 99.576H307.409V103.752ZM315.015 109V101.224H316.103L316.215 102.632H316.263C316.53 102.141 316.855 101.752 317.239 101.464C317.623 101.176 318.034 101.032 318.471 101.032C318.78 101.032 319.058 101.085 319.303 101.192L319.047 102.344C318.919 102.301 318.802 102.269 318.695 102.248C318.588 102.227 318.455 102.216 318.295 102.216C317.964 102.216 317.618 102.349 317.255 102.616C316.903 102.883 316.594 103.347 316.327 104.008V109H315.015ZM323.43 109.192C322.8 109.192 322.208 109.032 321.654 108.712C321.11 108.392 320.667 107.928 320.326 107.32C319.995 106.712 319.83 105.981 319.83 105.128C319.83 104.253 319.995 103.512 320.326 102.904C320.667 102.296 321.11 101.832 321.654 101.512C322.208 101.192 322.8 101.032 323.43 101.032C324.07 101.032 324.662 101.192 325.206 101.512C325.75 101.832 326.187 102.296 326.518 102.904C326.859 103.512 327.03 104.253 327.03 105.128C327.03 105.981 326.859 106.712 326.518 107.32C326.187 107.928 325.75 108.392 325.206 108.712C324.662 109.032 324.07 109.192 323.43 109.192ZM323.43 108.104C324.102 108.104 324.64 107.832 325.046 107.288C325.462 106.733 325.67 106.013 325.67 105.128C325.67 104.232 325.462 103.507 325.046 102.952C324.64 102.397 324.102 102.12 323.43 102.12C322.768 102.12 322.23 102.397 321.814 102.952C321.398 103.507 321.19 104.232 321.19 105.128C321.19 106.013 321.398 106.733 321.814 107.288C322.23 107.832 322.768 108.104 323.43 108.104ZM328.278 112.472C328.043 112.472 327.83 112.451 327.638 112.408C327.435 112.365 327.264 112.317 327.126 112.264L327.398 111.272C327.494 111.304 327.606 111.331 327.734 111.352C327.862 111.384 327.995 111.4 328.134 111.4C328.518 111.4 328.774 111.261 328.902 110.984C329.03 110.717 329.094 110.349 329.094 109.88V101.224H330.406V109.88C330.406 110.669 330.246 111.299 329.926 111.768C329.606 112.237 329.056 112.472 328.278 112.472ZM329.734 99.624C329.478 99.624 329.264 99.5493 329.094 99.4C328.934 99.24 328.854 99.0267 328.854 98.76C328.854 98.504 328.934 98.296 329.094 98.136C329.264 97.976 329.478 97.896 329.734 97.896C329.99 97.896 330.198 97.976 330.358 98.136C330.528 98.296 330.614 98.504 330.614 98.76C330.614 99.0267 330.528 99.24 330.358 99.4C330.198 99.5493 329.99 99.624 329.734 99.624ZM336.183 109.192C335.489 109.192 334.86 109.032 334.295 108.712C333.729 108.381 333.281 107.912 332.951 107.304C332.62 106.696 332.455 105.971 332.455 105.128C332.455 104.275 332.62 103.544 332.951 102.936C333.292 102.328 333.729 101.859 334.263 101.528C334.796 101.197 335.356 101.032 335.943 101.032C336.935 101.032 337.697 101.363 338.231 102.024C338.775 102.685 339.047 103.571 339.047 104.68C339.047 104.819 339.041 104.957 339.031 105.096C339.031 105.224 339.02 105.336 338.999 105.432H333.751C333.804 106.253 334.06 106.909 334.519 107.4C334.988 107.891 335.596 108.136 336.343 108.136C336.716 108.136 337.057 108.083 337.367 107.976C337.687 107.859 337.991 107.709 338.279 107.528L338.743 108.392C338.412 108.605 338.033 108.792 337.607 108.952C337.191 109.112 336.716 109.192 336.183 109.192ZM333.735 104.488H337.895C337.895 103.699 337.724 103.101 337.383 102.696C337.052 102.28 336.583 102.072 335.975 102.072C335.431 102.072 334.94 102.285 334.503 102.712C334.076 103.128 333.82 103.72 333.735 104.488ZM344.04 109.192C343.358 109.192 342.739 109.032 342.184 108.712C341.63 108.392 341.192 107.928 340.872 107.32C340.552 106.712 340.392 105.981 340.392 105.128C340.392 104.253 340.563 103.512 340.904 102.904C341.256 102.296 341.715 101.832 342.28 101.512C342.856 101.192 343.475 101.032 344.136 101.032C344.648 101.032 345.086 101.123 345.448 101.304C345.822 101.485 346.142 101.699 346.408 101.944L345.736 102.808C345.512 102.605 345.272 102.44 345.016 102.312C344.771 102.184 344.494 102.12 344.184 102.12C343.715 102.12 343.294 102.248 342.92 102.504C342.558 102.749 342.27 103.101 342.056 103.56C341.854 104.008 341.752 104.531 341.752 105.128C341.752 106.013 341.971 106.733 342.408 107.288C342.856 107.832 343.438 108.104 344.152 108.104C344.515 108.104 344.851 108.029 345.16 107.88C345.47 107.72 345.742 107.533 345.976 107.32L346.552 108.2C346.2 108.509 345.811 108.755 345.384 108.936C344.958 109.107 344.51 109.192 344.04 109.192ZM350.557 109.192C349.725 109.192 349.144 108.952 348.813 108.472C348.493 107.992 348.333 107.368 348.333 106.6V102.296H347.181V101.304L348.397 101.224L348.557 99.048H349.661V101.224H351.757V102.296H349.661V106.616C349.661 107.096 349.746 107.469 349.917 107.736C350.098 107.992 350.413 108.12 350.861 108.12C351 108.12 351.149 108.099 351.309 108.056C351.469 108.003 351.613 107.955 351.741 107.912L351.997 108.904C351.784 108.979 351.549 109.043 351.293 109.096C351.048 109.16 350.802 109.192 350.557 109.192ZM352.519 111.56L356.791 97.64H357.751L353.479 111.56H352.519Z" fill="#EFEEF9" style="fill:#EFEEF9;fill:color(display-p3 0.9384 0.9344 0.9750);fill-opacity:1;"/>
<path d="M74.464 160.336C72.9333 160.336 71.5613 159.963 70.348 159.216C69.1533 158.451 68.2013 157.359 67.492 155.94C66.8013 154.521 66.456 152.813 66.456 150.816C66.456 148.837 66.8107 147.139 67.52 145.72C68.2293 144.301 69.2 143.209 70.432 142.444C71.664 141.679 73.0547 141.296 74.604 141.296C75.724 141.296 76.7133 141.529 77.572 141.996C78.4307 142.444 79.1213 142.967 79.644 143.564L78.384 145.076C77.8987 144.553 77.348 144.133 76.732 143.816C76.116 143.499 75.416 143.34 74.632 143.34C73.4747 143.34 72.4573 143.648 71.58 144.264C70.7213 144.861 70.0493 145.711 69.564 146.812C69.0973 147.913 68.864 149.229 68.864 150.76C68.864 152.291 69.0973 153.625 69.564 154.764C70.0307 155.884 70.684 156.752 71.524 157.368C72.3827 157.984 73.3907 158.292 74.548 158.292C75.4253 158.292 76.2093 158.105 76.9 157.732C77.5907 157.359 78.2253 156.855 78.804 156.22L80.092 157.676C79.364 158.516 78.5427 159.169 77.628 159.636C76.7133 160.103 75.6587 160.336 74.464 160.336ZM88.5841 160.336C87.4828 160.336 86.4468 160.056 85.4761 159.496C84.5241 158.936 83.7494 158.124 83.1521 157.06C82.5734 155.996 82.2841 154.717 82.2841 153.224C82.2841 151.693 82.5734 150.396 83.1521 149.332C83.7494 148.268 84.5241 147.456 85.4761 146.896C86.4468 146.336 87.4828 146.056 88.5841 146.056C89.7041 146.056 90.7401 146.336 91.6921 146.896C92.6441 147.456 93.4094 148.268 93.9881 149.332C94.5854 150.396 94.8841 151.693 94.8841 153.224C94.8841 154.717 94.5854 155.996 93.9881 157.06C93.4094 158.124 92.6441 158.936 91.6921 159.496C90.7401 160.056 89.7041 160.336 88.5841 160.336ZM88.5841 158.432C89.7601 158.432 90.7028 157.956 91.4121 157.004C92.1401 156.033 92.5041 154.773 92.5041 153.224C92.5041 151.656 92.1401 150.387 91.4121 149.416C90.7028 148.445 89.7601 147.96 88.5841 147.96C87.4268 147.96 86.4841 148.445 85.7561 149.416C85.0281 150.387 84.6641 151.656 84.6641 153.224C84.6641 154.773 85.0281 156.033 85.7561 157.004C86.4841 157.956 87.4268 158.432 88.5841 158.432ZM98.4679 160V146.392H100.372L100.568 148.352H100.652C101.249 147.699 101.903 147.157 102.612 146.728C103.321 146.28 104.077 146.056 104.88 146.056C105.925 146.056 106.737 146.289 107.316 146.756C107.913 147.204 108.352 147.839 108.632 148.66C109.341 147.895 110.06 147.269 110.788 146.784C111.516 146.299 112.291 146.056 113.112 146.056C114.512 146.056 115.548 146.513 116.22 147.428C116.911 148.324 117.256 149.64 117.256 151.376V160H114.96V151.684C114.96 150.415 114.755 149.491 114.344 148.912C113.933 148.333 113.299 148.044 112.44 148.044C111.432 148.044 110.293 148.744 109.024 150.144V160H106.728V151.684C106.728 150.415 106.523 149.491 106.112 148.912C105.701 148.333 105.057 148.044 104.18 148.044C103.172 148.044 102.033 148.744 100.764 150.144V160H98.4679ZM121.683 165.74V146.392H123.587L123.783 147.96H123.867C124.483 147.437 125.155 146.989 125.883 146.616C126.629 146.243 127.404 146.056 128.207 146.056C129.961 146.056 131.296 146.691 132.211 147.96C133.125 149.211 133.583 150.891 133.583 153C133.583 154.531 133.303 155.847 132.743 156.948C132.201 158.049 131.483 158.889 130.587 159.468C129.709 160.047 128.748 160.336 127.703 160.336C127.068 160.336 126.433 160.196 125.799 159.916C125.183 159.636 124.557 159.253 123.923 158.768L123.979 161.148V165.74H121.683ZM127.311 158.404C128.431 158.404 129.355 157.928 130.083 156.976C130.829 156.005 131.203 154.68 131.203 153C131.203 151.507 130.923 150.303 130.363 149.388C129.821 148.455 128.907 147.988 127.619 147.988C127.04 147.988 126.452 148.147 125.855 148.464C125.276 148.781 124.651 149.239 123.979 149.836V156.976C124.595 157.499 125.192 157.872 125.771 158.096C126.349 158.301 126.863 158.404 127.311 158.404ZM142.506 160.336C141.405 160.336 140.369 160.056 139.398 159.496C138.446 158.936 137.671 158.124 137.074 157.06C136.495 155.996 136.206 154.717 136.206 153.224C136.206 151.693 136.495 150.396 137.074 149.332C137.671 148.268 138.446 147.456 139.398 146.896C140.369 146.336 141.405 146.056 142.506 146.056C143.626 146.056 144.662 146.336 145.614 146.896C146.566 147.456 147.331 148.268 147.91 149.332C148.507 150.396 148.806 151.693 148.806 153.224C148.806 154.717 148.507 155.996 147.91 157.06C147.331 158.124 146.566 158.936 145.614 159.496C144.662 160.056 143.626 160.336 142.506 160.336ZM142.506 158.432C143.682 158.432 144.625 157.956 145.334 157.004C146.062 156.033 146.426 154.773 146.426 153.224C146.426 151.656 146.062 150.387 145.334 149.416C144.625 148.445 143.682 147.96 142.506 147.96C141.349 147.96 140.406 148.445 139.678 149.416C138.95 150.387 138.586 151.656 138.586 153.224C138.586 154.773 138.95 156.033 139.678 157.004C140.406 157.956 141.349 158.432 142.506 158.432ZM152.39 160V146.392H154.294L154.49 148.352H154.574C155.227 147.699 155.918 147.157 156.646 146.728C157.374 146.28 158.204 146.056 159.138 146.056C160.575 146.056 161.62 146.513 162.274 147.428C162.946 148.324 163.282 149.64 163.282 151.376V160H160.986V151.684C160.986 150.415 160.78 149.491 160.37 148.912C159.959 148.333 159.306 148.044 158.41 148.044C157.719 148.044 157.094 148.221 156.534 148.576C155.992 148.931 155.376 149.453 154.686 150.144V160H152.39ZM173.218 160.336C172.005 160.336 170.904 160.056 169.914 159.496C168.925 158.917 168.141 158.096 167.562 157.032C166.984 155.968 166.694 154.699 166.694 153.224C166.694 151.731 166.984 150.452 167.562 149.388C168.16 148.324 168.925 147.503 169.858 146.924C170.792 146.345 171.772 146.056 172.798 146.056C174.534 146.056 175.869 146.635 176.802 147.792C177.754 148.949 178.23 150.499 178.23 152.44C178.23 152.683 178.221 152.925 178.202 153.168C178.202 153.392 178.184 153.588 178.146 153.756H168.962C169.056 155.193 169.504 156.341 170.306 157.2C171.128 158.059 172.192 158.488 173.498 158.488C174.152 158.488 174.749 158.395 175.29 158.208C175.85 158.003 176.382 157.741 176.886 157.424L177.698 158.936C177.12 159.309 176.457 159.636 175.71 159.916C174.982 160.196 174.152 160.336 173.218 160.336ZM168.934 152.104H176.214C176.214 150.723 175.916 149.677 175.318 148.968C174.74 148.24 173.918 147.876 172.854 147.876C171.902 147.876 171.044 148.249 170.278 148.996C169.532 149.724 169.084 150.76 168.934 152.104ZM181.593 160V146.392H183.497L183.693 148.352H183.777C184.43 147.699 185.121 147.157 185.849 146.728C186.577 146.28 187.408 146.056 188.341 146.056C189.778 146.056 190.824 146.513 191.477 147.428C192.149 148.324 192.485 149.64 192.485 151.376V160H190.189V151.684C190.189 150.415 189.984 149.491 189.573 148.912C189.162 148.333 188.509 148.044 187.613 148.044C186.922 148.044 186.297 148.221 185.737 148.576C185.196 148.931 184.58 149.453 183.889 150.144V160H181.593ZM201.189 160.336C199.733 160.336 198.716 159.916 198.137 159.076C197.577 158.236 197.297 157.144 197.297 155.8V148.268H195.281V146.532L197.409 146.392L197.689 142.584H199.621V146.392H203.289V148.268H199.621V155.828C199.621 156.668 199.771 157.321 200.069 157.788C200.387 158.236 200.937 158.46 201.721 158.46C201.964 158.46 202.225 158.423 202.505 158.348C202.785 158.255 203.037 158.171 203.261 158.096L203.709 159.832C203.336 159.963 202.925 160.075 202.477 160.168C202.048 160.28 201.619 160.336 201.189 160.336ZM209.649 160.336C208.678 160.336 207.754 160.159 206.877 159.804C206 159.431 205.234 158.983 204.581 158.46L205.729 156.92C206.326 157.387 206.942 157.779 207.577 158.096C208.212 158.395 208.93 158.544 209.733 158.544C210.629 158.544 211.301 158.339 211.749 157.928C212.197 157.499 212.421 156.995 212.421 156.416C212.421 155.949 212.262 155.557 211.945 155.24C211.646 154.923 211.254 154.661 210.769 154.456C210.302 154.232 209.817 154.027 209.313 153.84C208.678 153.597 208.053 153.327 207.437 153.028C206.821 152.711 206.317 152.309 205.925 151.824C205.533 151.32 205.337 150.685 205.337 149.92C205.337 148.819 205.748 147.904 206.569 147.176C207.409 146.429 208.566 146.056 210.041 146.056C210.881 146.056 211.665 146.205 212.393 146.504C213.121 146.803 213.746 147.167 214.269 147.596L213.149 149.052C212.682 148.697 212.197 148.408 211.693 148.184C211.189 147.96 210.638 147.848 210.041 147.848C209.182 147.848 208.548 148.044 208.137 148.436C207.745 148.828 207.549 149.285 207.549 149.808C207.549 150.237 207.689 150.592 207.969 150.872C208.249 151.133 208.613 151.367 209.061 151.572C209.509 151.759 209.985 151.955 210.489 152.16C211.142 152.403 211.786 152.683 212.421 153C213.056 153.299 213.578 153.709 213.989 154.232C214.418 154.736 214.633 155.417 214.633 156.276C214.633 157.004 214.437 157.676 214.045 158.292C213.672 158.908 213.112 159.403 212.365 159.776C211.637 160.149 210.732 160.336 209.649 160.336Z" fill="#EFEEF9" style="fill:#EFEEF9;fill:color(display-p3 0.9384 0.9344 0.9750);fill-opacity:1;"/>
<rect x="104" y="208" width="73" height="65" rx="20" fill="#31363F" style="fill:#31363F;fill:color(display-p3 0.1922 0.2118 0.2471);fill-opacity:1;"/>
<path d="M130.004 248.24C129.551 248.24 129.078 248.133 128.584 247.92C128.104 247.693 127.651 247.387 127.224 247H127.164L127.024 248H125.704V233.76H127.344V237.64L127.304 239.4C127.744 239.013 128.224 238.693 128.744 238.44C129.278 238.173 129.811 238.04 130.344 238.04C131.611 238.04 132.571 238.487 133.224 239.38C133.878 240.273 134.204 241.473 134.204 242.98C134.204 244.087 134.004 245.033 133.604 245.82C133.218 246.607 132.704 247.207 132.064 247.62C131.438 248.033 130.751 248.24 130.004 248.24ZM129.724 246.86C130.524 246.86 131.184 246.52 131.704 245.84C132.238 245.147 132.504 244.2 132.504 243C132.504 241.933 132.304 241.073 131.904 240.42C131.518 239.753 130.864 239.42 129.944 239.42C129.531 239.42 129.111 239.533 128.684 239.76C128.258 239.987 127.811 240.313 127.344 240.74V245.84C127.771 246.213 128.191 246.48 128.604 246.64C129.031 246.787 129.404 246.86 129.724 246.86ZM139.599 248.24C138.572 248.24 137.819 247.92 137.339 247.28C136.859 246.627 136.619 245.68 136.619 244.44V238.28H138.279V244.22C138.279 245.127 138.419 245.787 138.699 246.2C138.992 246.613 139.459 246.82 140.099 246.82C140.606 246.82 141.052 246.693 141.439 246.44C141.839 246.173 142.266 245.753 142.719 245.18V238.28H144.359V248H142.999L142.859 246.48H142.799C142.346 247.013 141.866 247.44 141.359 247.76C140.852 248.08 140.266 248.24 139.599 248.24ZM147.638 248V238.28H148.998L149.138 239.68H149.198C149.665 239.213 150.158 238.827 150.678 238.52C151.198 238.2 151.791 238.04 152.458 238.04C153.485 238.04 154.231 238.367 154.698 239.02C155.178 239.66 155.418 240.6 155.418 241.84V248H153.778V242.06C153.778 241.153 153.631 240.493 153.338 240.08C153.045 239.667 152.578 239.46 151.938 239.46C151.445 239.46 150.998 239.587 150.598 239.84C150.211 240.093 149.771 240.467 149.278 240.96V248H147.638Z" fill="#EFEEF9" style="fill:#EFEEF9;fill:color(display-p3 0.9384 0.9344 0.9750);fill-opacity:1;"/>
<rect x="75" y="281" width="131" height="65" rx="20" fill="#31363F" style="fill:#31363F;fill:color(display-p3 0.1922 0.2118 0.2471);fill-opacity:1;"/>
<path d="M96.7591 321V311.28H98.1191L98.2591 313.04H98.3191C98.6525 312.427 99.0591 311.94 99.5391 311.58C100.019 311.22 100.532 311.04 101.079 311.04C101.466 311.04 101.812 311.107 102.119 311.24L101.799 312.68C101.639 312.627 101.492 312.587 101.359 312.56C101.226 312.533 101.059 312.52 100.859 312.52C100.446 312.52 100.012 312.687 99.5591 313.02C99.1191 313.353 98.7325 313.933 98.3991 314.76V321H96.7591ZM107.437 321.24C106.571 321.24 105.784 321.04 105.077 320.64C104.371 320.227 103.811 319.64 103.397 318.88C102.984 318.12 102.777 317.213 102.777 316.16C102.777 315.093 102.984 314.18 103.397 313.42C103.824 312.66 104.371 312.073 105.037 311.66C105.704 311.247 106.404 311.04 107.137 311.04C108.377 311.04 109.331 311.453 109.997 312.28C110.677 313.107 111.017 314.213 111.017 315.6C111.017 315.773 111.011 315.947 110.997 316.12C110.997 316.28 110.984 316.42 110.957 316.54H104.397C104.464 317.567 104.784 318.387 105.357 319C105.944 319.613 106.704 319.92 107.637 319.92C108.104 319.92 108.531 319.853 108.917 319.72C109.317 319.573 109.697 319.387 110.057 319.16L110.637 320.24C110.224 320.507 109.751 320.74 109.217 320.94C108.697 321.14 108.104 321.24 107.437 321.24ZM104.377 315.36H109.577C109.577 314.373 109.364 313.627 108.937 313.12C108.524 312.6 107.937 312.34 107.177 312.34C106.497 312.34 105.884 312.607 105.337 313.14C104.804 313.66 104.484 314.4 104.377 315.36ZM115.386 321.24C114.573 321.24 113.893 321 113.346 320.52C112.813 320.027 112.546 319.347 112.546 318.48C112.546 317.413 113.019 316.6 113.966 316.04C114.926 315.467 116.439 315.067 118.506 314.84C118.506 314.427 118.446 314.033 118.326 313.66C118.219 313.287 118.019 312.987 117.726 312.76C117.446 312.52 117.039 312.4 116.506 312.4C115.946 312.4 115.419 312.507 114.926 312.72C114.433 312.933 113.993 313.173 113.606 313.44L112.966 312.3C113.419 312.007 113.973 311.727 114.626 311.46C115.293 311.18 116.013 311.04 116.786 311.04C117.973 311.04 118.833 311.407 119.366 312.14C119.899 312.86 120.166 313.827 120.166 315.04V321H118.806L118.666 319.84H118.606C118.153 320.213 117.653 320.54 117.106 320.82C116.573 321.1 115.999 321.24 115.386 321.24ZM115.866 319.92C116.333 319.92 116.773 319.807 117.186 319.58C117.599 319.353 118.039 319.033 118.506 318.62V315.92C116.893 316.12 115.759 316.42 115.106 316.82C114.466 317.22 114.146 317.733 114.146 318.36C114.146 318.907 114.313 319.307 114.646 319.56C114.979 319.8 115.386 319.92 115.866 319.92ZM127.064 321.24C126.211 321.24 125.437 321.04 124.744 320.64C124.051 320.24 123.504 319.66 123.104 318.9C122.704 318.14 122.504 317.227 122.504 316.16C122.504 315.067 122.717 314.14 123.144 313.38C123.584 312.62 124.157 312.04 124.864 311.64C125.584 311.24 126.357 311.04 127.184 311.04C127.824 311.04 128.371 311.153 128.824 311.38C129.291 311.607 129.691 311.873 130.024 312.18L129.184 313.26C128.904 313.007 128.604 312.8 128.284 312.64C127.977 312.48 127.631 312.4 127.244 312.4C126.657 312.4 126.131 312.56 125.664 312.88C125.211 313.187 124.851 313.627 124.584 314.2C124.331 314.76 124.204 315.413 124.204 316.16C124.204 317.267 124.477 318.167 125.024 318.86C125.584 319.54 126.311 319.88 127.204 319.88C127.657 319.88 128.077 319.787 128.464 319.6C128.851 319.4 129.191 319.167 129.484 318.9L130.204 320C129.764 320.387 129.277 320.693 128.744 320.92C128.211 321.133 127.651 321.24 127.064 321.24ZM135.21 321.24C134.17 321.24 133.443 320.94 133.03 320.34C132.63 319.74 132.43 318.96 132.43 318V312.62H130.99V311.38L132.51 311.28L132.71 308.56H134.09V311.28H136.71V312.62H134.09V318.02C134.09 318.62 134.196 319.087 134.41 319.42C134.636 319.74 135.03 319.9 135.59 319.9C135.763 319.9 135.95 319.873 136.15 319.82C136.35 319.753 136.53 319.693 136.69 319.64L137.01 320.88C136.743 320.973 136.45 321.053 136.13 321.12C135.823 321.2 135.516 321.24 135.21 321.24ZM145.591 318.92V315.02H141.951V313.78H145.591V309.88H146.891V313.78H150.531V315.02H146.891V318.92H145.591ZM158.957 321L155.457 311.28H157.157L158.997 316.8C159.143 317.28 159.29 317.76 159.437 318.24C159.597 318.72 159.75 319.193 159.897 319.66H159.977C160.123 319.193 160.27 318.72 160.417 318.24C160.577 317.76 160.723 317.28 160.857 316.8L162.697 311.28H164.317L160.877 321H158.957ZM166.193 321V311.28H167.833V321H166.193ZM167.033 309.28C166.713 309.28 166.446 309.187 166.233 309C166.033 308.8 165.933 308.533 165.933 308.2C165.933 307.88 166.033 307.62 166.233 307.42C166.446 307.22 166.713 307.12 167.033 307.12C167.353 307.12 167.613 307.22 167.813 307.42C168.026 307.62 168.133 307.88 168.133 308.2C168.133 308.533 168.026 308.8 167.813 309C167.613 309.187 167.353 309.28 167.033 309.28ZM174.175 321.24C173.135 321.24 172.408 320.94 171.995 320.34C171.595 319.74 171.395 318.96 171.395 318V312.62H169.955V311.38L171.475 311.28L171.675 308.56H173.055V311.28H175.675V312.62H173.055V318.02C173.055 318.62 173.161 319.087 173.375 319.42C173.601 319.74 173.995 319.9 174.555 319.9C174.728 319.9 174.915 319.873 175.115 319.82C175.315 319.753 175.495 319.693 175.655 319.64L175.975 320.88C175.708 320.973 175.415 321.053 175.095 321.12C174.788 321.2 174.481 321.24 174.175 321.24ZM181.539 321.24C180.672 321.24 179.886 321.04 179.179 320.64C178.472 320.227 177.912 319.64 177.499 318.88C177.086 318.12 176.879 317.213 176.879 316.16C176.879 315.093 177.086 314.18 177.499 313.42C177.926 312.66 178.472 312.073 179.139 311.66C179.806 311.247 180.506 311.04 181.239 311.04C182.479 311.04 183.432 311.453 184.099 312.28C184.779 313.107 185.119 314.213 185.119 315.6C185.119 315.773 185.112 315.947 185.099 316.12C185.099 316.28 185.086 316.42 185.059 316.54H178.499C178.566 317.567 178.886 318.387 179.459 319C180.046 319.613 180.806 319.92 181.739 319.92C182.206 319.92 182.632 319.853 183.019 319.72C183.419 319.573 183.799 319.387 184.159 319.16L184.739 320.24C184.326 320.507 183.852 320.74 183.319 320.94C182.799 321.14 182.206 321.24 181.539 321.24ZM178.479 315.36H183.679C183.679 314.373 183.466 313.627 183.039 313.12C182.626 312.6 182.039 312.34 181.279 312.34C180.599 312.34 179.986 312.607 179.439 313.14C178.906 313.66 178.586 314.4 178.479 315.36Z" fill="#EFEEF9" style="fill:#EFEEF9;fill:color(display-p3 0.9384 0.9344 0.9750);fill-opacity:1;"/>
<rect x="380.5" y="208" width="82" height="65" rx="20" fill="#31363F" style="fill:#31363F;fill:color(display-p3 0.1922 0.2118 0.2471);fill-opacity:1;"/>
<path d="M402.613 248V238.28H403.973L404.113 240.04H404.173C404.506 239.427 404.913 238.94 405.393 238.58C405.873 238.22 406.386 238.04 406.933 238.04C407.319 238.04 407.666 238.107 407.973 238.24L407.653 239.68C407.493 239.627 407.346 239.587 407.213 239.56C407.079 239.533 406.913 239.52 406.713 239.52C406.299 239.52 405.866 239.687 405.413 240.02C404.973 240.353 404.586 240.933 404.253 241.76V248H402.613ZM413.291 248.24C412.424 248.24 411.638 248.04 410.931 247.64C410.224 247.227 409.664 246.64 409.251 245.88C408.838 245.12 408.631 244.213 408.631 243.16C408.631 242.093 408.838 241.18 409.251 240.42C409.678 239.66 410.224 239.073 410.891 238.66C411.558 238.247 412.258 238.04 412.991 238.04C414.231 238.04 415.184 238.453 415.851 239.28C416.531 240.107 416.871 241.213 416.871 242.6C416.871 242.773 416.864 242.947 416.851 243.12C416.851 243.28 416.838 243.42 416.811 243.54H410.251C410.318 244.567 410.638 245.387 411.211 246C411.798 246.613 412.558 246.92 413.491 246.92C413.958 246.92 414.384 246.853 414.771 246.72C415.171 246.573 415.551 246.387 415.911 246.16L416.491 247.24C416.078 247.507 415.604 247.74 415.071 247.94C414.551 248.14 413.958 248.24 413.291 248.24ZM410.231 242.36H415.431C415.431 241.373 415.218 240.627 414.791 240.12C414.378 239.6 413.791 239.34 413.031 239.34C412.351 239.34 411.738 239.607 411.191 240.14C410.658 240.66 410.338 241.4 410.231 242.36ZM422.593 248.24C421.379 248.24 420.406 247.8 419.673 246.92C418.939 246.027 418.573 244.773 418.573 243.16C418.573 242.107 418.766 241.2 419.153 240.44C419.553 239.667 420.073 239.073 420.713 238.66C421.366 238.247 422.059 238.04 422.793 238.04C423.353 238.04 423.839 238.14 424.253 238.34C424.666 238.54 425.086 238.813 425.513 239.16L425.433 237.5V233.76H427.093V248H425.733L425.593 246.86H425.533C425.159 247.233 424.719 247.56 424.213 247.84C423.706 248.107 423.166 248.24 422.593 248.24ZM422.953 246.86C423.806 246.86 424.633 246.413 425.433 245.52V240.44C425.019 240.067 424.619 239.807 424.233 239.66C423.859 239.5 423.473 239.42 423.073 239.42C422.553 239.42 422.079 239.58 421.653 239.9C421.239 240.207 420.906 240.64 420.653 241.2C420.399 241.747 420.273 242.393 420.273 243.14C420.273 244.3 420.506 245.213 420.973 245.88C421.439 246.533 422.099 246.86 422.953 246.86ZM430.367 248V238.28H432.007V248H430.367ZM431.207 236.28C430.887 236.28 430.62 236.187 430.407 236C430.207 235.8 430.107 235.533 430.107 235.2C430.107 234.88 430.207 234.62 430.407 234.42C430.62 234.22 430.887 234.12 431.207 234.12C431.527 234.12 431.787 234.22 431.987 234.42C432.2 234.62 432.307 234.88 432.307 235.2C432.307 235.533 432.2 235.8 431.987 236C431.787 236.187 431.527 236.28 431.207 236.28ZM437.828 248.24C437.135 248.24 436.475 248.113 435.848 247.86C435.222 247.593 434.675 247.273 434.208 246.9L435.028 245.8C435.455 246.133 435.895 246.413 436.348 246.64C436.802 246.853 437.315 246.96 437.888 246.96C438.528 246.96 439.008 246.813 439.328 246.52C439.648 246.213 439.808 245.853 439.808 245.44C439.808 245.107 439.695 244.827 439.468 244.6C439.255 244.373 438.975 244.187 438.628 244.04C438.295 243.88 437.948 243.733 437.588 243.6C437.135 243.427 436.688 243.233 436.248 243.02C435.808 242.793 435.448 242.507 435.168 242.16C434.888 241.8 434.748 241.347 434.748 240.8C434.748 240.013 435.042 239.36 435.628 238.84C436.228 238.307 437.055 238.04 438.108 238.04C438.708 238.04 439.268 238.147 439.788 238.36C440.308 238.573 440.755 238.833 441.128 239.14L440.328 240.18C439.995 239.927 439.648 239.72 439.288 239.56C438.928 239.4 438.535 239.32 438.108 239.32C437.495 239.32 437.042 239.46 436.748 239.74C436.468 240.02 436.328 240.347 436.328 240.72C436.328 241.027 436.428 241.28 436.628 241.48C436.828 241.667 437.088 241.833 437.408 241.98C437.728 242.113 438.068 242.253 438.428 242.4C438.895 242.573 439.355 242.773 439.808 243C440.262 243.213 440.635 243.507 440.928 243.88C441.235 244.24 441.388 244.727 441.388 245.34C441.388 245.86 441.248 246.34 440.968 246.78C440.702 247.22 440.302 247.573 439.768 247.84C439.248 248.107 438.602 248.24 437.828 248.24Z" fill="#EFEEF9" style="fill:#EFEEF9;fill:color(display-p3 0.9384 0.9344 0.9750);fill-opacity:1;"/>
<rect x="365.5" y="281" width="112" height="65" rx="20" fill="#31363F" style="fill:#31363F;fill:color(display-p3 0.1922 0.2118 0.2471);fill-opacity:1;"/>
<path d="M387.339 325.1V311.28H388.699L388.839 312.4H388.899C389.339 312.027 389.819 311.707 390.339 311.44C390.873 311.173 391.426 311.04 391.999 311.04C393.253 311.04 394.206 311.493 394.859 312.4C395.513 313.293 395.839 314.493 395.839 316C395.839 317.093 395.639 318.033 395.239 318.82C394.853 319.607 394.339 320.207 393.699 320.62C393.073 321.033 392.386 321.24 391.639 321.24C391.186 321.24 390.733 321.14 390.279 320.94C389.839 320.74 389.393 320.467 388.939 320.12L388.979 321.82V325.1H387.339ZM391.359 319.86C392.159 319.86 392.819 319.52 393.339 318.84C393.873 318.147 394.139 317.2 394.139 316C394.139 314.933 393.939 314.073 393.539 313.42C393.153 312.753 392.499 312.42 391.579 312.42C391.166 312.42 390.746 312.533 390.319 312.76C389.906 312.987 389.459 313.313 388.979 313.74V318.84C389.419 319.213 389.846 319.48 390.259 319.64C390.673 319.787 391.039 319.86 391.359 319.86ZM402.213 321.24C401.426 321.24 400.686 321.04 399.993 320.64C399.313 320.24 398.76 319.66 398.333 318.9C397.92 318.14 397.713 317.227 397.713 316.16C397.713 315.067 397.92 314.14 398.333 313.38C398.76 312.62 399.313 312.04 399.993 311.64C400.686 311.24 401.426 311.04 402.213 311.04C403.013 311.04 403.753 311.24 404.433 311.64C405.113 312.04 405.66 312.62 406.073 313.38C406.5 314.14 406.713 315.067 406.713 316.16C406.713 317.227 406.5 318.14 406.073 318.9C405.66 319.66 405.113 320.24 404.433 320.64C403.753 321.04 403.013 321.24 402.213 321.24ZM402.213 319.88C403.053 319.88 403.726 319.54 404.233 318.86C404.753 318.167 405.013 317.267 405.013 316.16C405.013 315.04 404.753 314.133 404.233 313.44C403.726 312.747 403.053 312.4 402.213 312.4C401.386 312.4 400.713 312.747 400.193 313.44C399.673 314.133 399.413 315.04 399.413 316.16C399.413 317.267 399.673 318.167 400.193 318.86C400.713 319.54 401.386 319.88 402.213 319.88ZM411.813 321.24C411.119 321.24 410.459 321.113 409.833 320.86C409.206 320.593 408.659 320.273 408.193 319.9L409.013 318.8C409.439 319.133 409.879 319.413 410.333 319.64C410.786 319.853 411.299 319.96 411.873 319.96C412.513 319.96 412.993 319.813 413.313 319.52C413.633 319.213 413.793 318.853 413.793 318.44C413.793 318.107 413.679 317.827 413.453 317.6C413.239 317.373 412.959 317.187 412.613 317.04C412.279 316.88 411.933 316.733 411.573 316.6C411.119 316.427 410.673 316.233 410.233 316.02C409.793 315.793 409.433 315.507 409.153 315.16C408.873 314.8 408.733 314.347 408.733 313.8C408.733 313.013 409.026 312.36 409.613 311.84C410.213 311.307 411.039 311.04 412.093 311.04C412.693 311.04 413.253 311.147 413.773 311.36C414.293 311.573 414.739 311.833 415.113 312.14L414.313 313.18C413.979 312.927 413.633 312.72 413.273 312.56C412.913 312.4 412.519 312.32 412.093 312.32C411.479 312.32 411.026 312.46 410.733 312.74C410.453 313.02 410.313 313.347 410.313 313.72C410.313 314.027 410.413 314.28 410.613 314.48C410.813 314.667 411.073 314.833 411.393 314.98C411.713 315.113 412.053 315.253 412.413 315.4C412.879 315.573 413.339 315.773 413.793 316C414.246 316.213 414.619 316.507 414.913 316.88C415.219 317.24 415.373 317.727 415.373 318.34C415.373 318.86 415.233 319.34 414.953 319.78C414.686 320.22 414.286 320.573 413.753 320.84C413.233 321.107 412.586 321.24 411.813 321.24ZM420.321 321.24C419.281 321.24 418.554 320.94 418.141 320.34C417.741 319.74 417.541 318.96 417.541 318V312.62H416.101V311.38L417.621 311.28L417.821 308.56H419.201V311.28H421.821V312.62H419.201V318.02C419.201 318.62 419.308 319.087 419.521 319.42C419.748 319.74 420.141 319.9 420.701 319.9C420.874 319.9 421.061 319.873 421.261 319.82C421.461 319.753 421.641 319.693 421.801 319.64L422.121 320.88C421.854 320.973 421.561 321.053 421.241 321.12C420.934 321.2 420.628 321.24 420.321 321.24ZM427.104 325.48C425.917 325.48 424.95 325.253 424.204 324.8C423.457 324.347 423.084 323.7 423.084 322.86C423.084 322.447 423.21 322.047 423.464 321.66C423.717 321.287 424.064 320.953 424.504 320.66V320.58C424.264 320.433 424.057 320.227 423.884 319.96C423.724 319.693 423.644 319.373 423.644 319C423.644 318.587 423.757 318.227 423.984 317.92C424.21 317.613 424.45 317.373 424.704 317.2V317.12C424.384 316.853 424.09 316.493 423.824 316.04C423.57 315.587 423.444 315.073 423.444 314.5C423.444 313.793 423.61 313.18 423.944 312.66C424.277 312.14 424.724 311.74 425.284 311.46C425.844 311.18 426.45 311.04 427.104 311.04C427.37 311.04 427.624 311.067 427.864 311.12C428.104 311.16 428.31 311.213 428.484 311.28H431.864V312.54H429.864C430.09 312.753 430.277 313.04 430.424 313.4C430.584 313.747 430.664 314.127 430.664 314.54C430.664 315.233 430.504 315.833 430.184 316.34C429.864 316.847 429.437 317.24 428.904 317.52C428.37 317.787 427.77 317.92 427.104 317.92C426.584 317.92 426.097 317.807 425.644 317.58C425.47 317.727 425.324 317.893 425.204 318.08C425.084 318.253 425.024 318.473 425.024 318.74C425.024 319.047 425.144 319.3 425.384 319.5C425.637 319.7 426.09 319.8 426.744 319.8H428.624C429.757 319.8 430.604 319.987 431.164 320.36C431.737 320.72 432.024 321.307 432.024 322.12C432.024 322.72 431.824 323.273 431.424 323.78C431.024 324.287 430.457 324.693 429.724 325C428.99 325.32 428.117 325.48 427.104 325.48ZM427.104 316.82C427.664 316.82 428.144 316.613 428.544 316.2C428.957 315.773 429.164 315.207 429.164 314.5C429.164 313.793 428.964 313.24 428.564 312.84C428.164 312.44 427.677 312.24 427.104 312.24C426.53 312.24 426.044 312.44 425.644 312.84C425.244 313.24 425.044 313.793 425.044 314.5C425.044 315.207 425.244 315.773 425.644 316.2C426.057 316.613 426.544 316.82 427.104 316.82ZM427.344 324.34C428.277 324.34 429.024 324.133 429.584 323.72C430.144 323.32 430.424 322.867 430.424 322.36C430.424 321.907 430.25 321.593 429.904 321.42C429.57 321.247 429.09 321.16 428.464 321.16H426.784C426.597 321.16 426.39 321.147 426.164 321.12C425.95 321.093 425.737 321.053 425.524 321C425.177 321.253 424.924 321.52 424.764 321.8C424.604 322.08 424.524 322.36 424.524 322.64C424.524 323.16 424.77 323.573 425.264 323.88C425.77 324.187 426.464 324.34 427.344 324.34ZM433.902 321V311.28H435.262L435.402 313.04H435.462C435.795 312.427 436.202 311.94 436.682 311.58C437.162 311.22 437.675 311.04 438.222 311.04C438.608 311.04 438.955 311.107 439.262 311.24L438.942 312.68C438.782 312.627 438.635 312.587 438.502 312.56C438.368 312.533 438.202 312.52 438.002 312.52C437.588 312.52 437.155 312.687 436.702 313.02C436.262 313.353 435.875 313.933 435.542 314.76V321H433.902ZM444.58 321.24C443.713 321.24 442.927 321.04 442.22 320.64C441.513 320.227 440.953 319.64 440.54 318.88C440.127 318.12 439.92 317.213 439.92 316.16C439.92 315.093 440.127 314.18 440.54 313.42C440.967 312.66 441.513 312.073 442.18 311.66C442.847 311.247 443.547 311.04 444.28 311.04C445.52 311.04 446.473 311.453 447.14 312.28C447.82 313.107 448.16 314.213 448.16 315.6C448.16 315.773 448.153 315.947 448.14 316.12C448.14 316.28 448.127 316.42 448.1 316.54H441.54C441.607 317.567 441.927 318.387 442.5 319C443.087 319.613 443.847 319.92 444.78 319.92C445.247 319.92 445.673 319.853 446.06 319.72C446.46 319.573 446.84 319.387 447.2 319.16L447.78 320.24C447.367 320.507 446.893 320.74 446.36 320.94C445.84 321.14 445.247 321.24 444.58 321.24ZM441.52 315.36H446.72C446.72 314.373 446.507 313.627 446.08 313.12C445.667 312.6 445.08 312.34 444.32 312.34C443.64 312.34 443.027 312.607 442.48 313.14C441.947 313.66 441.627 314.4 441.52 315.36ZM453.102 321.24C452.409 321.24 451.749 321.113 451.122 320.86C450.495 320.593 449.949 320.273 449.482 319.9L450.302 318.8C450.729 319.133 451.169 319.413 451.622 319.64C452.075 319.853 452.589 319.96 453.162 319.96C453.802 319.96 454.282 319.813 454.602 319.52C454.922 319.213 455.082 318.853 455.082 318.44C455.082 318.107 454.969 317.827 454.742 317.6C454.529 317.373 454.249 317.187 453.902 317.04C453.569 316.88 453.222 316.733 452.862 316.6C452.409 316.427 451.962 316.233 451.522 316.02C451.082 315.793 450.722 315.507 450.442 315.16C450.162 314.8 450.022 314.347 450.022 313.8C450.022 313.013 450.315 312.36 450.902 311.84C451.502 311.307 452.329 311.04 453.382 311.04C453.982 311.04 454.542 311.147 455.062 311.36C455.582 311.573 456.029 311.833 456.402 312.14L455.602 313.18C455.269 312.927 454.922 312.72 454.562 312.56C454.202 312.4 453.809 312.32 453.382 312.32C452.769 312.32 452.315 312.46 452.022 312.74C451.742 313.02 451.602 313.347 451.602 313.72C451.602 314.027 451.702 314.28 451.902 314.48C452.102 314.667 452.362 314.833 452.682 314.98C453.002 315.113 453.342 315.253 453.702 315.4C454.169 315.573 454.629 315.773 455.082 316C455.535 316.213 455.909 316.507 456.202 316.88C456.509 317.24 456.662 317.727 456.662 318.34C456.662 318.86 456.522 319.34 456.242 319.78C455.975 320.22 455.575 320.573 455.042 320.84C454.522 321.107 453.875 321.24 453.102 321.24Z" fill="#EFEEF9" style="fill:#EFEEF9;fill:color(display-p3 0.9384 0.9344 0.9750);fill-opacity:1;"/>
<path d="M378.684 149.724L377.816 152.524H383.332L382.464 149.724C382.128 148.697 381.811 147.68 381.512 146.672C381.213 145.645 380.915 144.6 380.616 143.536H380.504C380.224 144.6 379.935 145.645 379.636 146.672C379.337 147.68 379.02 148.697 378.684 149.724ZM373.084 160L379.3 141.632H381.932L388.148 160H385.656L383.92 154.4H377.228L375.464 160H373.084ZM395.174 160.336C393.476 160.336 392.113 159.72 391.086 158.488C390.06 157.237 389.546 155.483 389.546 153.224C389.546 151.749 389.817 150.48 390.358 149.416C390.918 148.333 391.646 147.503 392.542 146.924C393.457 146.345 394.428 146.056 395.454 146.056C396.238 146.056 396.92 146.196 397.498 146.476C398.077 146.756 398.665 147.139 399.262 147.624L399.15 145.3V140.064H401.474V160H399.57L399.374 158.404H399.29C398.768 158.927 398.152 159.384 397.442 159.776C396.733 160.149 395.977 160.336 395.174 160.336ZM395.678 158.404C396.873 158.404 398.03 157.779 399.15 156.528V149.416C398.572 148.893 398.012 148.529 397.47 148.324C396.948 148.1 396.406 147.988 395.846 147.988C395.118 147.988 394.456 148.212 393.858 148.66C393.28 149.089 392.813 149.696 392.458 150.48C392.104 151.245 391.926 152.151 391.926 153.196C391.926 154.82 392.253 156.099 392.906 157.032C393.56 157.947 394.484 158.404 395.678 158.404ZM410.706 160.336C409.007 160.336 407.644 159.72 406.618 158.488C405.591 157.237 405.078 155.483 405.078 153.224C405.078 151.749 405.348 150.48 405.89 149.416C406.45 148.333 407.178 147.503 408.074 146.924C408.988 146.345 409.959 146.056 410.986 146.056C411.77 146.056 412.451 146.196 413.03 146.476C413.608 146.756 414.196 147.139 414.794 147.624L414.682 145.3V140.064H417.006V160H415.102L414.906 158.404H414.822C414.299 158.927 413.683 159.384 412.974 159.776C412.264 160.149 411.508 160.336 410.706 160.336ZM411.21 158.404C412.404 158.404 413.562 157.779 414.682 156.528V149.416C414.103 148.893 413.543 148.529 413.002 148.324C412.479 148.1 411.938 147.988 411.378 147.988C410.65 147.988 409.987 148.212 409.39 148.66C408.811 149.089 408.344 149.696 407.99 150.48C407.635 151.245 407.458 152.151 407.458 153.196C407.458 154.82 407.784 156.099 408.438 157.032C409.091 157.947 410.015 158.404 411.21 158.404ZM420.441 153.868V152.104H426.881V153.868H420.441ZM435.576 160.336C434.475 160.336 433.439 160.056 432.468 159.496C431.516 158.936 430.742 158.124 430.144 157.06C429.566 155.996 429.276 154.717 429.276 153.224C429.276 151.693 429.566 150.396 430.144 149.332C430.742 148.268 431.516 147.456 432.468 146.896C433.439 146.336 434.475 146.056 435.576 146.056C436.696 146.056 437.732 146.336 438.684 146.896C439.636 147.456 440.402 148.268 440.98 149.332C441.578 150.396 441.876 151.693 441.876 153.224C441.876 154.717 441.578 155.996 440.98 157.06C440.402 158.124 439.636 158.936 438.684 159.496C437.732 160.056 436.696 160.336 435.576 160.336ZM435.576 158.432C436.752 158.432 437.695 157.956 438.404 157.004C439.132 156.033 439.496 154.773 439.496 153.224C439.496 151.656 439.132 150.387 438.404 149.416C437.695 148.445 436.752 147.96 435.576 147.96C434.419 147.96 433.476 148.445 432.748 149.416C432.02 150.387 431.656 151.656 431.656 153.224C431.656 154.773 432.02 156.033 432.748 157.004C433.476 157.956 434.419 158.432 435.576 158.432ZM445.46 160V146.392H447.364L447.56 148.352H447.644C448.297 147.699 448.988 147.157 449.716 146.728C450.444 146.28 451.275 146.056 452.208 146.056C453.645 146.056 454.691 146.513 455.344 147.428C456.016 148.324 456.352 149.64 456.352 151.376V160H454.056V151.684C454.056 150.415 453.851 149.491 453.44 148.912C453.029 148.333 452.376 148.044 451.48 148.044C450.789 148.044 450.164 148.221 449.604 148.576C449.063 148.931 448.447 149.453 447.756 150.144V160H445.46ZM464.329 160.336C463.358 160.336 462.434 160.159 461.557 159.804C460.679 159.431 459.914 158.983 459.261 158.46L460.409 156.92C461.006 157.387 461.622 157.779 462.257 158.096C462.891 158.395 463.61 158.544 464.413 158.544C465.309 158.544 465.981 158.339 466.429 157.928C466.877 157.499 467.101 156.995 467.101 156.416C467.101 155.949 466.942 155.557 466.625 155.24C466.326 154.923 465.934 154.661 465.449 154.456C464.982 154.232 464.497 154.027 463.993 153.84C463.358 153.597 462.733 153.327 462.117 153.028C461.501 152.711 460.997 152.309 460.605 151.824C460.213 151.32 460.017 150.685 460.017 149.92C460.017 148.819 460.427 147.904 461.249 147.176C462.089 146.429 463.246 146.056 464.721 146.056C465.561 146.056 466.345 146.205 467.073 146.504C467.801 146.803 468.426 147.167 468.949 147.596L467.829 149.052C467.362 148.697 466.877 148.408 466.373 148.184C465.869 147.96 465.318 147.848 464.721 147.848C463.862 147.848 463.227 148.044 462.817 148.436C462.425 148.828 462.229 149.285 462.229 149.808C462.229 150.237 462.369 150.592 462.649 150.872C462.929 151.133 463.293 151.367 463.741 151.572C464.189 151.759 464.665 151.955 465.169 152.16C465.822 152.403 466.466 152.683 467.101 153C467.735 153.299 468.258 153.709 468.669 154.232C469.098 154.736 469.313 155.417 469.313 156.276C469.313 157.004 469.117 157.676 468.725 158.292C468.351 158.908 467.791 159.403 467.045 159.776C466.317 160.149 465.411 160.336 464.329 160.336Z" fill="#EFEEF9" style="fill:#EFEEF9;fill:color(display-p3 0.9384 0.9344 0.9750);fill-opacity:1;"/>
</svg>
